<svg width="256" height="256" viewBox="0 0 256 256" fill="none" xmlns="http://www.w3.org/2000/svg">

<style>
    svg{background: #0004}
    
    #rain1{
        animation: rain .45s cubic-bezier(.43,.45,.57,.55) infinite normal;
    }
    #rain2{
        animation: rain .45s cubic-bezier(.52,.48,.48,.52) .07s infinite normal;
    }
    #rain3{
        animation: rain .45s cubic-bezier(.48,.52,.52,.48) .06s infinite normal;
    }
    #rain4{
        animation: rain .45s cubic-bezier(.45,.43,.55,.57) infinite normal;
    }

    @keyframes rain{
        from{
            transform: translateY(0);
        }
        to{
            transform: translateY(128px);
        }
    }
</style>

<g id="09d" clip-path="url(#clip0)">
<g id="rain1">
<path d="M45.8541 -119.995C50.2716 -112.345 47.6501 -102.562 39.9987 -98.1456C32.3473 -93.7287 22.5634 -96.3499 18.1459 -104C15.1314 -109.22 15.3947 -115.434 18.2973 -120.257L31.9924 -143.987L31.9924 -144L45.8489 -120.004C45.8506 -120.001 45.8524 -119.998 45.8541 -119.995Z" fill="#41DAEF"/>
<path d="M45.8541 136.005C50.2716 143.655 47.6501 153.438 39.9987 157.854C32.3473 162.271 22.5634 159.65 18.1459 152C15.1314 146.78 15.3947 140.566 18.2973 135.743L31.9924 112.013L31.9924 112L45.8489 135.996C45.8506 135.999 45.8524 136.002 45.8541 136.005Z" fill="#41DAEF"/>
<path d="M45.8541 8.00523C50.2716 15.6554 47.6501 25.4376 39.9987 29.8544C32.3473 34.2713 22.5634 31.6501 18.1459 24C15.1314 18.7796 15.3947 12.5665 18.2973 7.74289L31.9924 -15.9869L31.9924 -16L45.8489 7.99622C45.8506 7.99922 45.8524 8.00223 45.8541 8.00523Z" fill="#41DAEF"/>
</g>
<g id="rain2">
<path d="M109.854 -55.9948C114.272 -48.3446 111.65 -38.5624 103.999 -34.1456C96.3473 -29.7287 86.5634 -32.3499 82.1459 -40C79.1314 -45.2204 79.3947 -51.4335 82.2973 -56.2571L95.9924 -79.9869L95.9924 -80L109.849 -56.0038C109.851 -56.0008 109.852 -55.9978 109.854 -55.9948Z" fill="#41DAEF"/>
<path d="M109.854 200.005C114.272 207.655 111.65 217.438 103.999 221.854C96.3473 226.271 86.5634 223.65 82.1459 216C79.1314 210.78 79.3947 204.566 82.2973 199.743L95.9924 176.013L95.9924 176L109.849 199.996C109.851 199.999 109.852 200.002 109.854 200.005Z" fill="#41DAEF"/>
<path d="M109.854 72.0052C114.272 79.6554 111.65 89.4376 103.999 93.8544C96.3473 98.2713 86.5634 95.6501 82.1459 88C79.1314 82.7796 79.3947 76.5665 82.2973 71.7429L95.9924 48.0131L95.9924 48L109.849 71.9962C109.851 71.9992 109.852 72.0022 109.854 72.0052Z" fill="#41DAEF"/>
</g>
<g id="rain3">
<path d="M173.854 -119.995C178.272 -112.345 175.65 -102.562 167.999 -98.1456C160.347 -93.7287 150.563 -96.3499 146.146 -104C143.131 -109.22 143.395 -115.434 146.297 -120.257L159.992 -143.987L159.992 -144L173.849 -120.004C173.851 -120.001 173.852 -119.998 173.854 -119.995Z" fill="#41DAEF"/>
<path d="M173.854 136.005C178.272 143.655 175.65 153.438 167.999 157.854C160.347 162.271 150.563 159.65 146.146 152C143.131 146.78 143.395 140.566 146.297 135.743L159.992 112.013L159.992 112L173.849 135.996C173.851 135.999 173.852 136.002 173.854 136.005Z" fill="#41DAEF"/>
<path d="M173.854 8.00523C178.272 15.6554 175.65 25.4376 167.999 29.8544C160.347 34.2713 150.563 31.6501 146.146 24C143.131 18.7796 143.395 12.5665 146.297 7.74289L159.992 -15.9869L159.992 -16L173.849 7.99622C173.851 7.99922 173.852 8.00223 173.854 8.00523Z" fill="#41DAEF"/>
</g>
<g id="rain4">
<path d="M237.854 -55.9948C242.272 -48.3446 239.65 -38.5624 231.999 -34.1456C224.347 -29.7287 214.563 -32.3499 210.146 -40C207.131 -45.2204 207.395 -51.4335 210.297 -56.2571L223.992 -79.9869L223.992 -80L237.849 -56.0038C237.851 -56.0008 237.852 -55.9978 237.854 -55.9948Z" fill="#41DAEF"/>
<path d="M237.854 200.005C242.272 207.655 239.65 217.438 231.999 221.854C224.347 226.271 214.563 223.65 210.146 216C207.131 210.78 207.395 204.566 210.297 199.743L223.992 176.013L223.992 176L237.849 199.996C237.851 199.999 237.852 200.002 237.854 200.005Z" fill="#41DAEF"/>
<path d="M237.854 72.0052C242.272 79.6554 239.65 89.4376 231.999 93.8544C224.347 98.2713 214.563 95.6501 210.146 88C207.131 82.7796 207.395 76.5665 210.297 71.7429L223.992 48.0131L223.992 48L237.849 71.9962C237.851 71.9992 237.852 72.0022 237.854 72.0052Z" fill="#41DAEF"/>
</g>
</g>
<defs>
<clipPath id="clip0">
<rect width="256" height="256" fill="white"/>
</clipPath>
</defs>
</svg>
