<svg width="396" height="192" viewBox="0 0 396 192" fill="none" xmlns="http://www.w3.org/2000/svg">

<style>

    svg{background: #0004}
    
</style>

<g filter="url(#filter0_d)">
<path fill-rule="evenodd" clip-rule="evenodd" d="M339.89 108.686C341.938 111.357 343.651 114.298 344.968 117.446C357.777 107.352 366 91.6987 366 74.125C366 43.6803 341.32 19 310.875 19C294.379 19 279.575 26.2459 269.473 37.7285C272.531 39.2616 275.462 41.0094 278.248 42.9522C286.464 34.3551 298.044 29 310.875 29C335.797 29 356 49.2031 356 74.125C356 87.998 349.74 100.409 339.89 108.686Z" fill="#E1B000" fill-opacity="0.01"/>
<path d="M344.968 117.446L343.815 117.928L344.449 119.446L345.741 118.428L344.968 117.446ZM339.89 108.686L339.086 107.729L338.171 108.499L338.898 109.447L339.89 108.686ZM269.473 37.7285L268.534 36.9028L267.464 38.1195L268.913 38.8459L269.473 37.7285ZM278.248 42.9522L277.533 43.9775L278.411 44.5903L279.152 43.8159L278.248 42.9522ZM346.121 116.964C344.763 113.715 342.995 110.681 340.882 107.926L338.898 109.447C340.881 112.033 342.54 114.881 343.815 117.928L346.121 116.964ZM364.75 74.125C364.75 91.2996 356.715 106.597 344.194 116.464L345.741 118.428C358.838 108.107 367.25 92.0979 367.25 74.125H364.75ZM310.875 20.25C340.629 20.25 364.75 44.3707 364.75 74.125H367.25C367.25 42.9899 342.01 17.75 310.875 17.75V20.25ZM270.411 38.5541C280.286 27.3298 294.753 20.25 310.875 20.25V17.75C294.005 17.75 278.864 25.1619 268.534 36.9028L270.411 38.5541ZM278.963 41.927C276.128 39.95 273.145 38.1713 270.033 36.611L268.913 38.8459C271.916 40.3519 274.796 42.0689 277.533 43.9775L278.963 41.927ZM279.152 43.8159C287.142 35.4553 298.399 30.25 310.875 30.25V27.75C297.689 27.75 285.786 33.2549 277.344 42.0886L279.152 43.8159ZM310.875 30.25C335.107 30.25 354.75 49.8935 354.75 74.125H357.25C357.25 48.5128 336.487 27.75 310.875 27.75V30.25ZM354.75 74.125C354.75 87.6133 348.665 99.6792 339.086 107.729L340.694 109.643C350.814 101.138 357.25 88.3826 357.25 74.125H354.75Z" fill="#E1B000" fill-opacity="0.01"/>
</g>
<path fill-rule="evenodd" clip-rule="evenodd" d="M339.89 108.686C341.938 111.357 343.651 114.298 344.968 117.446C357.777 107.352 366 91.6987 366 74.125C366 43.6803 341.32 19 310.875 19C294.379 19 279.575 26.2459 269.473 37.7285C272.531 39.2616 275.462 41.0094 278.248 42.9522C286.464 34.3551 298.044 29 310.875 29C335.797 29 356 49.2031 356 74.125C356 87.998 349.74 100.409 339.89 108.686Z" fill="#E1B000"/>
<path d="M344.968 117.446L343.815 117.928L344.449 119.446L345.741 118.428L344.968 117.446ZM339.89 108.686L339.086 107.729L338.171 108.499L338.898 109.447L339.89 108.686ZM269.473 37.7285L268.534 36.9028L267.464 38.1195L268.913 38.8459L269.473 37.7285ZM278.248 42.9522L277.533 43.9775L278.411 44.5903L279.152 43.8159L278.248 42.9522ZM346.121 116.964C344.763 113.715 342.995 110.681 340.882 107.926L338.898 109.447C340.881 112.033 342.54 114.881 343.815 117.928L346.121 116.964ZM364.75 74.125C364.75 91.2996 356.715 106.597 344.194 116.464L345.741 118.428C358.838 108.107 367.25 92.0979 367.25 74.125H364.75ZM310.875 20.25C340.629 20.25 364.75 44.3707 364.75 74.125H367.25C367.25 42.9899 342.01 17.75 310.875 17.75V20.25ZM270.411 38.5541C280.286 27.3298 294.753 20.25 310.875 20.25V17.75C294.005 17.75 278.864 25.1619 268.534 36.9028L270.411 38.5541ZM278.963 41.927C276.128 39.95 273.145 38.1713 270.033 36.611L268.913 38.8459C271.916 40.3519 274.796 42.0689 277.533 43.9775L278.963 41.927ZM279.152 43.8159C287.142 35.4553 298.399 30.25 310.875 30.25V27.75C297.689 27.75 285.786 33.2549 277.344 42.0886L279.152 43.8159ZM310.875 30.25C335.107 30.25 354.75 49.8935 354.75 74.125H357.25C357.25 48.5128 336.487 27.75 310.875 27.75V30.25ZM354.75 74.125C354.75 87.6133 348.665 99.6792 339.086 107.729L340.694 109.643C350.814 101.138 357.25 88.3826 357.25 74.125H354.75Z" fill="#E1B000"/>
<g filter="url(#filter1_d)">
<path d="M37.84 77.8C41.3867 77.8 44.4667 78.3973 47.08 79.592C49.6933 80.7493 51.7093 82.4293 53.128 84.632C54.5467 86.7973 55.256 89.3547 55.256 92.304C55.256 95.2533 54.5467 97.8107 53.128 99.976C51.7093 102.141 49.6933 103.821 47.08 105.016C44.4667 106.173 41.3867 106.752 37.84 106.752H31.008V117H19.92V77.8H37.84ZM37.168 98.016C39.4453 98.016 41.1627 97.5307 42.32 96.56C43.4773 95.552 44.056 94.1333 44.056 92.304C44.056 90.4747 43.4773 89.056 42.32 88.048C41.1627 87.04 39.4453 86.536 37.168 86.536H31.008V98.016H37.168ZM80.9771 117.784C76.8331 117.784 73.0997 116.907 69.7771 115.152C66.4917 113.397 63.8971 110.971 61.9931 107.872C60.1264 104.773 59.1931 101.283 59.1931 97.4C59.1931 93.5173 60.1264 90.0267 61.9931 86.928C63.8971 83.8293 66.4917 81.4027 69.7771 79.648C73.0997 77.8933 76.8331 77.016 80.9771 77.016C85.1211 77.016 88.8357 77.8933 92.1211 79.648C95.4437 81.4027 98.0384 83.8293 99.9051 86.928C101.809 90.0267 102.761 93.5173 102.761 97.4C102.761 101.283 101.809 104.773 99.9051 107.872C98.0384 110.971 95.4437 113.397 92.1211 115.152C88.8357 116.907 85.1211 117.784 80.9771 117.784ZM80.9771 108.6C82.9557 108.6 84.7477 108.133 86.3531 107.2C87.9584 106.267 89.2277 104.96 90.1611 103.28C91.0944 101.563 91.5611 99.6027 91.5611 97.4C91.5611 95.1973 91.0944 93.256 90.1611 91.576C89.2277 89.8587 87.9584 88.5333 86.3531 87.6C84.7477 86.6667 82.9557 86.2 80.9771 86.2C78.9984 86.2 77.2064 86.6667 75.6011 87.6C73.9957 88.5333 72.7264 89.8587 71.7931 91.576C70.8597 93.256 70.3931 95.1973 70.3931 97.4C70.3931 99.6027 70.8597 101.563 71.7931 103.28C72.7264 104.96 73.9957 106.267 75.6011 107.2C77.2064 108.133 78.9984 108.6 80.9771 108.6ZM134.832 96.56H144.632V112.8C142.392 114.405 139.816 115.637 136.904 116.496C133.992 117.355 131.08 117.784 128.168 117.784C124.062 117.784 120.366 116.925 117.08 115.208C113.795 113.453 111.219 111.027 109.352 107.928C107.486 104.829 106.552 101.32 106.552 97.4C106.552 93.48 107.486 89.9707 109.352 86.872C111.219 83.7733 113.814 81.3653 117.136 79.648C120.459 77.8933 124.211 77.016 128.392 77.016C132.051 77.016 135.336 77.632 138.248 78.864C141.16 80.096 143.587 81.8693 145.528 84.184L138.472 90.568C135.822 87.656 132.648 86.2 128.952 86.2C125.592 86.2 122.886 87.2267 120.832 89.28C118.779 91.296 117.752 94.0027 117.752 97.4C117.752 99.5653 118.219 101.507 119.152 103.224C120.086 104.904 121.392 106.229 123.072 107.2C124.752 108.133 126.675 108.6 128.84 108.6C130.968 108.6 132.966 108.171 134.832 107.312V96.56ZM171.43 117.784C167.286 117.784 163.553 116.907 160.23 115.152C156.945 113.397 154.35 110.971 152.446 107.872C150.58 104.773 149.646 101.283 149.646 97.4C149.646 93.5173 150.58 90.0267 152.446 86.928C154.35 83.8293 156.945 81.4027 160.23 79.648C163.553 77.8933 167.286 77.016 171.43 77.016C175.574 77.016 179.289 77.8933 182.574 79.648C185.897 81.4027 188.492 83.8293 190.358 86.928C192.262 90.0267 193.214 93.5173 193.214 97.4C193.214 101.283 192.262 104.773 190.358 107.872C188.492 110.971 185.897 113.397 182.574 115.152C179.289 116.907 175.574 117.784 171.43 117.784ZM171.43 108.6C173.409 108.6 175.201 108.133 176.806 107.2C178.412 106.267 179.681 104.96 180.614 103.28C181.548 101.563 182.014 99.6027 182.014 97.4C182.014 95.1973 181.548 93.256 180.614 91.576C179.681 89.8587 178.412 88.5333 176.806 87.6C175.201 86.6667 173.409 86.2 171.43 86.2C169.452 86.2 167.66 86.6667 166.054 87.6C164.449 88.5333 163.18 89.8587 162.246 91.576C161.313 93.256 160.846 95.1973 160.846 97.4C160.846 99.6027 161.313 101.563 162.246 103.28C163.18 104.96 164.449 106.267 166.054 107.2C167.66 108.133 169.452 108.6 171.43 108.6ZM199.022 77.8H217.558C221.851 77.8 225.659 78.6027 228.982 80.208C232.304 81.8133 234.88 84.0907 236.71 87.04C238.539 89.9893 239.454 93.4427 239.454 97.4C239.454 101.357 238.539 104.811 236.71 107.76C234.88 110.709 232.304 112.987 228.982 114.592C225.659 116.197 221.851 117 217.558 117H199.022V77.8ZM217.11 108.152C220.47 108.152 223.158 107.2 225.174 105.296C227.227 103.392 228.254 100.76 228.254 97.4C228.254 94.04 227.227 91.408 225.174 89.504C223.158 87.6 220.47 86.648 217.11 86.648H210.11V108.152H217.11ZM271.004 109.384H254.428L251.348 117H240.036L257.34 77.8H268.26L285.62 117H274.084L271.004 109.384ZM267.756 101.208L262.716 88.664L257.676 101.208H267.756ZM57.216 133.8V173H48.088L30.784 152.112V173H19.92V133.8H29.048L46.352 154.688V133.8H57.216ZM91.3012 165.384H74.7252L71.6452 173H60.3332L77.6372 133.8H88.5572L105.917 173H94.3812L91.3012 165.384ZM88.0532 157.208L83.0132 144.664L77.9732 157.208H88.0532ZM143.278 133.8C146.824 133.8 149.904 134.397 152.518 135.592C155.131 136.749 157.147 138.429 158.566 140.632C159.984 142.797 160.694 145.355 160.694 148.304C160.694 151.253 159.984 153.811 158.566 155.976C157.147 158.141 155.131 159.821 152.518 161.016C149.904 162.173 146.824 162.752 143.278 162.752H136.446V173H125.358V133.8H143.278ZM142.606 154.016C144.883 154.016 146.6 153.531 147.758 152.56C148.915 151.552 149.494 150.133 149.494 148.304C149.494 146.475 148.915 145.056 147.758 144.048C146.6 143.04 144.883 142.536 142.606 142.536H136.446V154.016H142.606ZM186.415 173.784C182.271 173.784 178.537 172.907 175.215 171.152C171.929 169.397 169.335 166.971 167.431 163.872C165.564 160.773 164.631 157.283 164.631 153.4C164.631 149.517 165.564 146.027 167.431 142.928C169.335 139.829 171.929 137.403 175.215 135.648C178.537 133.893 182.271 133.016 186.415 133.016C190.559 133.016 194.273 133.893 197.559 135.648C200.881 137.403 203.476 139.829 205.343 142.928C207.247 146.027 208.199 149.517 208.199 153.4C208.199 157.283 207.247 160.773 205.343 163.872C203.476 166.971 200.881 169.397 197.559 171.152C194.273 172.907 190.559 173.784 186.415 173.784ZM186.415 164.6C188.393 164.6 190.185 164.133 191.791 163.2C193.396 162.267 194.665 160.96 195.599 159.28C196.532 157.563 196.999 155.603 196.999 153.4C196.999 151.197 196.532 149.256 195.599 147.576C194.665 145.859 193.396 144.533 191.791 143.6C190.185 142.667 188.393 142.2 186.415 142.2C184.436 142.2 182.644 142.667 181.039 143.6C179.433 144.533 178.164 145.859 177.231 147.576C176.297 149.256 175.831 151.197 175.831 153.4C175.831 155.603 176.297 157.563 177.231 159.28C178.164 160.96 179.433 162.267 181.039 163.2C182.644 164.133 184.436 164.6 186.415 164.6ZM214.006 133.8H225.094V164.208H243.798V173H214.006V133.8ZM265.891 173.784C260.067 173.784 255.531 172.197 252.283 169.024C249.072 165.851 247.467 161.352 247.467 155.528V133.8H258.555V155.192C258.555 161.464 261.037 164.6 266.003 164.6C270.931 164.6 273.395 161.464 273.395 155.192V133.8H284.315V155.528C284.315 161.352 282.691 165.851 279.443 169.024C276.232 172.197 271.715 173.784 265.891 173.784Z" fill="white" fill-opacity="0.01"/>
</g>
<path d="M37.84 77.8C41.3867 77.8 44.4667 78.3973 47.08 79.592C49.6933 80.7493 51.7093 82.4293 53.128 84.632C54.5467 86.7973 55.256 89.3547 55.256 92.304C55.256 95.2533 54.5467 97.8107 53.128 99.976C51.7093 102.141 49.6933 103.821 47.08 105.016C44.4667 106.173 41.3867 106.752 37.84 106.752H31.008V117H19.92V77.8H37.84ZM37.168 98.016C39.4453 98.016 41.1627 97.5307 42.32 96.56C43.4773 95.552 44.056 94.1333 44.056 92.304C44.056 90.4747 43.4773 89.056 42.32 88.048C41.1627 87.04 39.4453 86.536 37.168 86.536H31.008V98.016H37.168ZM80.9771 117.784C76.8331 117.784 73.0997 116.907 69.7771 115.152C66.4917 113.397 63.8971 110.971 61.9931 107.872C60.1264 104.773 59.1931 101.283 59.1931 97.4C59.1931 93.5173 60.1264 90.0267 61.9931 86.928C63.8971 83.8293 66.4917 81.4027 69.7771 79.648C73.0997 77.8933 76.8331 77.016 80.9771 77.016C85.1211 77.016 88.8357 77.8933 92.1211 79.648C95.4437 81.4027 98.0384 83.8293 99.9051 86.928C101.809 90.0267 102.761 93.5173 102.761 97.4C102.761 101.283 101.809 104.773 99.9051 107.872C98.0384 110.971 95.4437 113.397 92.1211 115.152C88.8357 116.907 85.1211 117.784 80.9771 117.784ZM80.9771 108.6C82.9557 108.6 84.7477 108.133 86.3531 107.2C87.9584 106.267 89.2277 104.96 90.1611 103.28C91.0944 101.563 91.5611 99.6027 91.5611 97.4C91.5611 95.1973 91.0944 93.256 90.1611 91.576C89.2277 89.8587 87.9584 88.5333 86.3531 87.6C84.7477 86.6667 82.9557 86.2 80.9771 86.2C78.9984 86.2 77.2064 86.6667 75.6011 87.6C73.9957 88.5333 72.7264 89.8587 71.7931 91.576C70.8597 93.256 70.3931 95.1973 70.3931 97.4C70.3931 99.6027 70.8597 101.563 71.7931 103.28C72.7264 104.96 73.9957 106.267 75.6011 107.2C77.2064 108.133 78.9984 108.6 80.9771 108.6ZM134.832 96.56H144.632V112.8C142.392 114.405 139.816 115.637 136.904 116.496C133.992 117.355 131.08 117.784 128.168 117.784C124.062 117.784 120.366 116.925 117.08 115.208C113.795 113.453 111.219 111.027 109.352 107.928C107.486 104.829 106.552 101.32 106.552 97.4C106.552 93.48 107.486 89.9707 109.352 86.872C111.219 83.7733 113.814 81.3653 117.136 79.648C120.459 77.8933 124.211 77.016 128.392 77.016C132.051 77.016 135.336 77.632 138.248 78.864C141.16 80.096 143.587 81.8693 145.528 84.184L138.472 90.568C135.822 87.656 132.648 86.2 128.952 86.2C125.592 86.2 122.886 87.2267 120.832 89.28C118.779 91.296 117.752 94.0027 117.752 97.4C117.752 99.5653 118.219 101.507 119.152 103.224C120.086 104.904 121.392 106.229 123.072 107.2C124.752 108.133 126.675 108.6 128.84 108.6C130.968 108.6 132.966 108.171 134.832 107.312V96.56ZM171.43 117.784C167.286 117.784 163.553 116.907 160.23 115.152C156.945 113.397 154.35 110.971 152.446 107.872C150.58 104.773 149.646 101.283 149.646 97.4C149.646 93.5173 150.58 90.0267 152.446 86.928C154.35 83.8293 156.945 81.4027 160.23 79.648C163.553 77.8933 167.286 77.016 171.43 77.016C175.574 77.016 179.289 77.8933 182.574 79.648C185.897 81.4027 188.492 83.8293 190.358 86.928C192.262 90.0267 193.214 93.5173 193.214 97.4C193.214 101.283 192.262 104.773 190.358 107.872C188.492 110.971 185.897 113.397 182.574 115.152C179.289 116.907 175.574 117.784 171.43 117.784ZM171.43 108.6C173.409 108.6 175.201 108.133 176.806 107.2C178.412 106.267 179.681 104.96 180.614 103.28C181.548 101.563 182.014 99.6027 182.014 97.4C182.014 95.1973 181.548 93.256 180.614 91.576C179.681 89.8587 178.412 88.5333 176.806 87.6C175.201 86.6667 173.409 86.2 171.43 86.2C169.452 86.2 167.66 86.6667 166.054 87.6C164.449 88.5333 163.18 89.8587 162.246 91.576C161.313 93.256 160.846 95.1973 160.846 97.4C160.846 99.6027 161.313 101.563 162.246 103.28C163.18 104.96 164.449 106.267 166.054 107.2C167.66 108.133 169.452 108.6 171.43 108.6ZM199.022 77.8H217.558C221.851 77.8 225.659 78.6027 228.982 80.208C232.304 81.8133 234.88 84.0907 236.71 87.04C238.539 89.9893 239.454 93.4427 239.454 97.4C239.454 101.357 238.539 104.811 236.71 107.76C234.88 110.709 232.304 112.987 228.982 114.592C225.659 116.197 221.851 117 217.558 117H199.022V77.8ZM217.11 108.152C220.47 108.152 223.158 107.2 225.174 105.296C227.227 103.392 228.254 100.76 228.254 97.4C228.254 94.04 227.227 91.408 225.174 89.504C223.158 87.6 220.47 86.648 217.11 86.648H210.11V108.152H217.11ZM271.004 109.384H254.428L251.348 117H240.036L257.34 77.8H268.26L285.62 117H274.084L271.004 109.384ZM267.756 101.208L262.716 88.664L257.676 101.208H267.756ZM57.216 133.8V173H48.088L30.784 152.112V173H19.92V133.8H29.048L46.352 154.688V133.8H57.216ZM91.3012 165.384H74.7252L71.6452 173H60.3332L77.6372 133.8H88.5572L105.917 173H94.3812L91.3012 165.384ZM88.0532 157.208L83.0132 144.664L77.9732 157.208H88.0532ZM143.278 133.8C146.824 133.8 149.904 134.397 152.518 135.592C155.131 136.749 157.147 138.429 158.566 140.632C159.984 142.797 160.694 145.355 160.694 148.304C160.694 151.253 159.984 153.811 158.566 155.976C157.147 158.141 155.131 159.821 152.518 161.016C149.904 162.173 146.824 162.752 143.278 162.752H136.446V173H125.358V133.8H143.278ZM142.606 154.016C144.883 154.016 146.6 153.531 147.758 152.56C148.915 151.552 149.494 150.133 149.494 148.304C149.494 146.475 148.915 145.056 147.758 144.048C146.6 143.04 144.883 142.536 142.606 142.536H136.446V154.016H142.606ZM186.415 173.784C182.271 173.784 178.537 172.907 175.215 171.152C171.929 169.397 169.335 166.971 167.431 163.872C165.564 160.773 164.631 157.283 164.631 153.4C164.631 149.517 165.564 146.027 167.431 142.928C169.335 139.829 171.929 137.403 175.215 135.648C178.537 133.893 182.271 133.016 186.415 133.016C190.559 133.016 194.273 133.893 197.559 135.648C200.881 137.403 203.476 139.829 205.343 142.928C207.247 146.027 208.199 149.517 208.199 153.4C208.199 157.283 207.247 160.773 205.343 163.872C203.476 166.971 200.881 169.397 197.559 171.152C194.273 172.907 190.559 173.784 186.415 173.784ZM186.415 164.6C188.393 164.6 190.185 164.133 191.791 163.2C193.396 162.267 194.665 160.96 195.599 159.28C196.532 157.563 196.999 155.603 196.999 153.4C196.999 151.197 196.532 149.256 195.599 147.576C194.665 145.859 193.396 144.533 191.791 143.6C190.185 142.667 188.393 142.2 186.415 142.2C184.436 142.2 182.644 142.667 181.039 143.6C179.433 144.533 178.164 145.859 177.231 147.576C176.297 149.256 175.831 151.197 175.831 153.4C175.831 155.603 176.297 157.563 177.231 159.28C178.164 160.96 179.433 162.267 181.039 163.2C182.644 164.133 184.436 164.6 186.415 164.6ZM214.006 133.8H225.094V164.208H243.798V173H214.006V133.8ZM265.891 173.784C260.067 173.784 255.531 172.197 252.283 169.024C249.072 165.851 247.467 161.352 247.467 155.528V133.8H258.555V155.192C258.555 161.464 261.037 164.6 266.003 164.6C270.931 164.6 273.395 161.464 273.395 155.192V133.8H284.315V155.528C284.315 161.352 282.691 165.851 279.443 169.024C276.232 172.197 271.715 173.784 265.891 173.784Z" fill="white"/>
<g filter="url(#filter2_d)">
<path fill-rule="evenodd" clip-rule="evenodd" d="M299.248 103.349L298.253 94.3507C294.891 63.9232 269.078 40.25 237.75 40.25C216.778 40.25 198.269 50.8525 187.313 67.0253C187.201 66.9654 187.089 66.9059 186.976 66.8471C183.999 65.2945 180.857 64.2358 177.595 63.6281C190.116 43.5844 212.376 30.25 237.75 30.25C274.232 30.25 304.276 57.8141 308.193 93.2523C308.337 93.2508 308.481 93.25 308.625 93.25C330.371 93.25 348 110.879 348 132.625C348 154.371 330.371 172 308.625 172H294.352C296.59 168.987 298.071 165.602 298.92 162H308.625C324.848 162 338 148.848 338 132.625C338 116.402 324.848 103.25 308.625 103.25C308.517 103.25 308.408 103.251 308.3 103.252L299.248 103.349Z" fill="white" fill-opacity="0.01"/>
<path d="M298.253 94.3507L299.496 94.2134L298.253 94.3507ZM299.248 103.349L298.005 103.486L298.13 104.611L299.261 104.599L299.248 103.349ZM187.313 67.0253L186.722 68.127L187.716 68.6596L188.348 67.7264L187.313 67.0253ZM186.976 66.8471L186.398 67.9554L186.398 67.9554L186.976 66.8471ZM177.595 63.6281L176.535 62.9659L175.564 64.5211L177.366 64.857L177.595 63.6281ZM308.193 93.2523L306.95 93.3896L307.075 94.5144L308.206 94.5023L308.193 93.2523ZM294.352 172L293.348 171.254L291.866 173.25H294.352V172ZM298.92 162V160.75H297.931L297.704 161.713L298.92 162ZM308.3 103.252L308.287 102.002H308.287L308.3 103.252ZM297.011 94.488L298.005 103.486L300.49 103.212L299.496 94.2134L297.011 94.488ZM237.75 41.5C268.434 41.5 293.717 64.6872 297.011 94.4881L299.496 94.2134C296.064 63.1593 269.722 39 237.75 39V41.5ZM188.348 67.7264C199.081 51.8826 217.209 41.5 237.75 41.5V39C216.346 39 197.457 49.8225 186.278 66.3243L188.348 67.7264ZM186.398 67.9554C186.506 68.012 186.615 68.0692 186.722 68.127L187.904 65.9237C187.788 65.8615 187.671 65.7998 187.554 65.7388L186.398 67.9554ZM177.366 64.857C180.512 65.4431 183.536 66.4626 186.398 67.9554L187.554 65.7388C184.462 64.1264 181.202 63.0286 177.824 62.3993L177.366 64.857ZM237.75 29C211.927 29 189.274 42.5719 176.535 62.9659L178.655 64.2904C190.957 44.5969 212.825 31.5 237.75 31.5V29ZM309.435 93.115C305.45 57.0505 274.876 29 237.75 29V31.5C273.588 31.5 303.103 58.5777 306.95 93.3896L309.435 93.115ZM308.625 92C308.476 92 308.328 92.0008 308.179 92.0024L308.206 94.5023C308.346 94.5008 308.485 94.5 308.625 94.5V92ZM349.25 132.625C349.25 110.188 331.062 92 308.625 92V94.5C329.681 94.5 346.75 111.569 346.75 132.625H349.25ZM308.625 173.25C331.062 173.25 349.25 155.062 349.25 132.625H346.75C346.75 153.681 329.681 170.75 308.625 170.75V173.25ZM294.352 173.25H308.625V170.75H294.352V173.25ZM297.704 161.713C296.889 165.168 295.475 168.393 293.348 171.254L295.355 172.746C297.706 169.582 299.253 166.037 300.137 162.287L297.704 161.713ZM308.625 160.75H298.92V163.25H308.625V160.75ZM336.75 132.625C336.75 148.158 324.158 160.75 308.625 160.75V163.25C325.539 163.25 339.25 149.539 339.25 132.625H336.75ZM308.625 104.5C324.158 104.5 336.75 117.092 336.75 132.625H339.25C339.25 115.711 325.539 102 308.625 102V104.5ZM308.314 104.502C308.417 104.501 308.521 104.5 308.625 104.5V102C308.512 102 308.399 102.001 308.287 102.002L308.314 104.502ZM299.261 104.599L308.314 104.502L308.287 102.002L299.234 102.099L299.261 104.599ZM186.356 67.9326L186.686 68.1211L187.926 65.9501L187.596 65.7616L186.356 67.9326Z" fill="white" fill-opacity="0.01"/>
</g>
<path fill-rule="evenodd" clip-rule="evenodd" d="M299.248 103.349L298.253 94.3507C294.891 63.9232 269.078 40.25 237.75 40.25C216.778 40.25 198.269 50.8525 187.313 67.0253C187.201 66.9654 187.089 66.9059 186.976 66.8471C183.999 65.2945 180.857 64.2358 177.595 63.6281C190.116 43.5844 212.376 30.25 237.75 30.25C274.232 30.25 304.276 57.8141 308.193 93.2523C308.337 93.2508 308.481 93.25 308.625 93.25C330.371 93.25 348 110.879 348 132.625C348 154.371 330.371 172 308.625 172H294.352C296.59 168.987 298.071 165.602 298.92 162H308.625C324.848 162 338 148.848 338 132.625C338 116.402 324.848 103.25 308.625 103.25L308.493 103.25C308.429 103.251 308.364 103.251 308.3 103.252L299.248 103.349Z" fill="white"/>
<path d="M298.253 94.3507L299.496 94.2134L299.496 94.2134L298.253 94.3507ZM299.248 103.349L298.005 103.486L298.13 104.611L299.261 104.599L299.248 103.349ZM187.313 67.0253L186.722 68.127L187.716 68.6596L188.348 67.7264L187.313 67.0253ZM186.976 66.8471L186.398 67.9554L186.398 67.9554L186.976 66.8471ZM177.595 63.6281L176.535 62.9659L175.564 64.5211L177.366 64.857L177.595 63.6281ZM308.193 93.2523L306.95 93.3896L307.075 94.5144L308.206 94.5023L308.193 93.2523ZM294.352 172L293.348 171.254L291.866 173.25H294.352V172ZM298.92 162V160.75H297.931L297.704 161.713L298.92 162ZM308.625 103.25V102L308.622 102L308.625 103.25ZM308.493 103.25L308.49 102L308.487 102L308.493 103.25ZM308.3 103.252L308.287 102.002L308.287 102.002L308.3 103.252ZM297.011 94.488L298.005 103.486L300.49 103.212L299.496 94.2134L297.011 94.488ZM237.75 41.5C268.434 41.5 293.717 64.6872 297.011 94.488L299.496 94.2134C296.064 63.1593 269.722 39 237.75 39V41.5ZM188.348 67.7264C199.081 51.8826 217.209 41.5 237.75 41.5V39C216.346 39 197.457 49.8225 186.278 66.3243L188.348 67.7264ZM186.398 67.9554C186.506 68.012 186.615 68.0692 186.722 68.127L187.904 65.9237C187.788 65.8615 187.671 65.7998 187.554 65.7388L186.398 67.9554ZM177.366 64.857C180.512 65.4431 183.536 66.4626 186.398 67.9554L187.554 65.7388C184.462 64.1264 181.202 63.0286 177.824 62.3993L177.366 64.857ZM237.75 29C211.927 29 189.274 42.5719 176.535 62.9659L178.655 64.2904C190.957 44.5969 212.825 31.5 237.75 31.5V29ZM309.435 93.115C305.45 57.0505 274.876 29 237.75 29V31.5C273.588 31.5 303.103 58.5777 306.95 93.3896L309.435 93.115ZM308.625 92C308.476 92 308.328 92.0008 308.179 92.0024L308.206 94.5023C308.346 94.5008 308.485 94.5 308.625 94.5V92ZM349.25 132.625C349.25 110.188 331.062 92 308.625 92V94.5C329.681 94.5 346.75 111.569 346.75 132.625H349.25ZM308.625 173.25C331.062 173.25 349.25 155.062 349.25 132.625H346.75C346.75 153.681 329.681 170.75 308.625 170.75V173.25ZM294.352 173.25H308.625V170.75H294.352V173.25ZM297.704 161.713C296.889 165.168 295.475 168.393 293.348 171.254L295.355 172.746C297.706 169.582 299.253 166.037 300.137 162.287L297.704 161.713ZM308.625 160.75H298.92V163.25H308.625V160.75ZM336.75 132.625C336.75 148.158 324.158 160.75 308.625 160.75V163.25C325.539 163.25 339.25 149.539 339.25 132.625H336.75ZM308.625 104.5C324.158 104.5 336.75 117.092 336.75 132.625H339.25C339.25 115.711 325.539 102 308.625 102V104.5ZM308.496 104.5L308.628 104.5L308.622 102L308.49 102L308.496 104.5ZM308.314 104.502C308.375 104.501 308.437 104.501 308.498 104.5L308.487 102C308.42 102.001 308.354 102.001 308.287 102.002L308.314 104.502ZM299.261 104.599L308.314 104.502L308.287 102.002L299.234 102.099L299.261 104.599ZM186.356 67.9326L186.686 68.1211L187.926 65.9501L187.596 65.7616L186.356 67.9326Z" fill="white"/>
<defs>
<filter id="filter0_d" x="259.464" y="9.75" width="115.786" height="117.696" filterUnits="userSpaceOnUse" color-interpolation-filters="sRGB">
<feFlood flood-opacity="0" result="BackgroundImageFix"/>
<feColorMatrix in="SourceAlpha" type="matrix" values="0 0 0 0 0 0 0 0 0 0 0 0 0 0 0 0 0 0 127 0"/>
<feOffset/>
<feGaussianBlur stdDeviation="4"/>
<feColorMatrix type="matrix" values="0 0 0 0 0 0 0 0 0 0 0 0 0 0 0 0 0 0 0.5 0"/>
<feBlend mode="normal" in2="BackgroundImageFix" result="effect1_dropShadow"/>
<feBlend mode="normal" in="SourceGraphic" in2="effect1_dropShadow" result="shape"/>
</filter>
<filter id="filter1_d" x="11.9199" y="69.016" width="281.7" height="112.768" filterUnits="userSpaceOnUse" color-interpolation-filters="sRGB">
<feFlood flood-opacity="0" result="BackgroundImageFix"/>
<feColorMatrix in="SourceAlpha" type="matrix" values="0 0 0 0 0 0 0 0 0 0 0 0 0 0 0 0 0 0 127 0"/>
<feOffset/>
<feGaussianBlur stdDeviation="4"/>
<feColorMatrix type="matrix" values="0 0 0 0 0 0 0 0 0 0 0 0 0 0 0 0 0 0 0.5 0"/>
<feBlend mode="normal" in2="BackgroundImageFix" result="effect1_dropShadow"/>
<feBlend mode="normal" in="SourceGraphic" in2="effect1_dropShadow" result="shape"/>
</filter>
<filter id="filter2_d" x="159.563" y="13" width="205.686" height="176.25" filterUnits="userSpaceOnUse" color-interpolation-filters="sRGB">
<feFlood flood-opacity="0" result="BackgroundImageFix"/>
<feColorMatrix in="SourceAlpha" type="matrix" values="0 0 0 0 0 0 0 0 0 0 0 0 0 0 0 0 0 0 127 0"/>
<feOffset/>
<feGaussianBlur stdDeviation="8"/>
<feColorMatrix type="matrix" values="0 0 0 0 0 0 0 0 0 0 0 0 0 0 0 0 0 0 0.5 0"/>
<feBlend mode="normal" in2="BackgroundImageFix" result="effect1_dropShadow"/>
<feBlend mode="normal" in="SourceGraphic" in2="effect1_dropShadow" result="shape"/>
</filter>
</defs>
</svg>
