<svg width="256" height="256" viewBox="0 0 256 256" fill="none" xmlns="http://www.w3.org/2000/svg">

<style>
    #star1{
        animation: twinkle 2s linear infinite normal;
    }
    #star2{
        animation: twinkle 1.854s linear .5s infinite normal;
    }
    #star3{
        animation: twinkle 2.312s linear .123s infinite normal;
    }

    @keyframes twinkle{
        0%  {opacity: .65}
        10% {opacity: .65}
        11% {opacity: 1}
        25% {opacity: 1}
        26% {opacity: .65}
        80% {opacity: .65}
        81% {opacity: 1}
        90% {opacity: 1}
        91% {opacity: .65}
        100%{opacity: .65}
    }

    #cloud,#cloudSh{
        animation: move 5s ease-in-out infinite alternate;
    }

    @keyframes move{
        from{
            transform: translate(0, 0);
        }
        to{
            transform: translate(-1.5rem, 0);
        }
    }
</style>

<g id="02n" clip-path="url(#clip0)">
<g id="moon">
<circle id="Ellipse 6" cx="128" cy="128" r="96" transform="rotate(-15 128 128)" fill="black" fill-opacity="0.33"/>
<path id="Subtract" fill-rule="evenodd" clip-rule="evenodd" d="M127.118 31.9808C89.882 52.9912 70.058 97.2154 81.6356 140.423C93.2131 183.631 132.493 212.018 175.246 211.596C168.348 215.488 160.851 218.584 152.847 220.729C101.634 234.451 48.9935 204.059 35.2711 152.847C21.5487 101.634 51.9406 48.9935 103.153 35.2711C111.158 33.1262 119.198 32.0591 127.118 31.9808Z" fill="#E6E6E6"/>
</g>
<g id="cloudSh" filter="url(#filter0_d)">
<path fill-rule="evenodd" clip-rule="evenodd" d="M89 197C72.4315 197 59 183.569 59 167C59 150.431 72.4315 137 89 137C89.1099 137 89.2197 137.001 89.3294 137.002C92.3132 110.001 115.204 89 143 89C163.514 89 181.356 100.439 190.496 117.285C196.079 114.541 202.359 113 209 113C232.196 113 251 131.804 251 155C251 178.196 232.196 197 209 197H143H89Z" fill="#B3B3B301"/>
</g>
<g id="cloud">
<path fill-rule="evenodd" clip-rule="evenodd" d="M89 197C72.4315 197 59 183.569 59 167C59 150.431 72.4315 137 89 137C89.1099 137 89.2197 137.001 89.3294 137.002C92.3132 110.001 115.204 89 143 89C163.514 89 181.356 100.439 190.496 117.285C196.079 114.541 202.359 113 209 113C232.196 113 251 131.804 251 155C251 178.196 232.196 197 209 197H143H89Z" fill="#B3B3B3"/>
</g>
<path id="star2" d="M226 28L230.321 39.6785L242 44L230.321 48.3215L226 60L221.679 48.3215L210 44L221.679 39.6785L226 28Z" fill="white"/>
<path id="star3" d="M184 9L187.241 17.7589L196 21L187.241 24.2411L184 33L180.759 24.2411L172 21L180.759 17.7589L184 9Z" fill="white"/>
</g>
<defs>
<filter id="filter0_d" x="44" y="74" width="224" height="140" filterUnits="userSpaceOnUse" color-interpolation-filters="sRGB">
<feFlood flood-opacity="0" result="BackgroundImageFix"/>
<feColorMatrix in="SourceAlpha" type="matrix" values="0 0 0 0 0 0 0 0 0 0 0 0 0 0 0 0 0 0 127 0"/>
<feOffset dx="1" dy="1"/>
<feGaussianBlur stdDeviation="8"/>
<feColorMatrix type="matrix" values="0 0 0 0 0 0 0 0 0 0 0 0 0 0 0 0 0 0 0.5 0"/>
<feBlend mode="normal" in2="BackgroundImageFix" result="effect1_dropShadow"/>
<feBlend mode="normal" in="SourceGraphic" in2="effect1_dropShadow" result="shape"/>
</filter>
<clipPath id="clip0">
<rect width="256" height="256" fill="white"/>
</clipPath>
</defs>
</svg>
