<svg width="256" height="256" viewBox="0 0 256 256" fill="none" xmlns="http://www.w3.org/2000/svg">

<style>
    #snow1{
        animation: snow 2s cubic-bezier(.35,.4,.65,.6) infinite normal;
    }
    #snow2{
        animation: snow 2s cubic-bezier(.55,.45,.45,.55) .4s infinite normal;
    }
    #snow3{
        animation: snow 2s cubic-bezier(.45,.55,.55,.45) .3s infinite normal;
    }
    #snow4{
        animation: snow 2s cubic-bezier(.4,.35,.6,.65) infinite normal;
    }

    @keyframes snow{
        from{
            transform: translateY(0);
        }
        to{
            transform: translateY(128px);
        }
    }
</style>

<g id="13d" clip-path="url(#clip0)">
<g id="snow2">
<path d="M108 -53H116V-11H108V-53Z" fill="#e5e5e5"/>
<path d="M128.373 -46L132.373 -39.0718L96 -18.0718L92 -25L128.373 -46Z" fill="#e5e5e5"/>
<path d="M92 -39.0718L96 -46L132.373 -25L128.373 -18.0718L92 -39.0718Z" fill="#e5e5e5"/>
<path d="M108 75H116V117H108V75Z" fill="#e5e5e5"/>
<path d="M128.373 82L132.373 88.9282L96 109.928L92 103L128.373 82Z" fill="#e5e5e5"/>
<path d="M92 88.9282L96 82L132.373 103L128.373 109.928L92 88.9282Z" fill="#e5e5e5"/>
<path d="M108 203H116V245H108V203Z" fill="#e5e5e5"/>
<path d="M128.373 210L132.373 216.928L96 237.928L92 231L128.373 210Z" fill="#e5e5e5"/>
<path d="M92 216.928L96 210L132.373 231L128.373 237.928L92 216.928Z" fill="#e5e5e5"/>
</g>
<g id="snow3">
<path d="M172 -117H180V-75H172V-117Z" fill="#e5e5e5"/>
<path d="M192.373 -110L196.373 -103.072L160 -82.0718L156 -89L192.373 -110Z" fill="#e5e5e5"/>
<path d="M156 -103.072L160 -110L196.373 -89L192.373 -82.0718L156 -103.072Z" fill="#e5e5e5"/>
<path d="M172 11H180V53H172V11Z" fill="#e5e5e5"/>
<path d="M192.373 18L196.373 24.9282L160 45.9282L156 39L192.373 18Z" fill="#e5e5e5"/>
<path d="M156 24.9282L160 18L196.373 39L192.373 45.9282L156 24.9282Z" fill="#e5e5e5"/>
<path d="M172 139H180V181H172V139Z" fill="#e5e5e5"/>
<path d="M192.373 146L196.373 152.928L160 173.928L156 167L192.373 146Z" fill="#e5e5e5"/>
<path d="M156 152.928L160 146L196.373 167L192.373 173.928L156 152.928Z" fill="#e5e5e5"/>
</g>
<g id="snow4">
<path d="M236 -53H244V-11H236V-53Z" fill="#e5e5e5"/>
<path d="M256.373 -46L260.373 -39.0718L224 -18.0718L220 -25L256.373 -46Z" fill="#e5e5e5"/>
<path d="M220 -39.0718L224 -46L260.373 -25L256.373 -18.0718L220 -39.0718Z" fill="#e5e5e5"/>
<path d="M236 75H244V117H236V75Z" fill="#e5e5e5"/>
<path d="M256.373 82L260.373 88.9282L224 109.928L220 103L256.373 82Z" fill="#e5e5e5"/>
<path d="M220 88.9282L224 82L260.373 103L256.373 109.928L220 88.9282Z" fill="#e5e5e5"/>
<path d="M236 203H244V245H236V203Z" fill="#e5e5e5"/>
<path d="M256.373 210L260.373 216.928L224 237.928L220 231L256.373 210Z" fill="#e5e5e5"/>
<path d="M220 216.928L224 210L260.373 231L256.373 237.928L220 216.928Z" fill="#e5e5e5"/>
</g>
<g id="snow1">
<path d="M44 -117H52V-75H44V-117Z" fill="#e5e5e5"/>
<path d="M64.3731 -110L68.3731 -103.072L32 -82.0718L28 -89L64.3731 -110Z" fill="#e5e5e5"/>
<path d="M28 -103.072L32 -110L68.3731 -89L64.3731 -82.0718L28 -103.072Z" fill="#e5e5e5"/>
<path d="M44 11H52V53H44V11Z" fill="#e5e5e5"/>
<path d="M64.3731 18L68.3731 24.9282L32 45.9282L28 39L64.3731 18Z" fill="#e5e5e5"/>
<path d="M28 24.9282L32 18L68.3731 39L64.3731 45.9282L28 24.9282Z" fill="#e5e5e5"/>
<path d="M44 139H52V181H44V139Z" fill="#e5e5e5"/>
<path d="M64.3731 146L68.3731 152.928L32 173.928L28 167L64.3731 146Z" fill="#e5e5e5"/>
<path d="M28 152.928L32 146L68.3731 167L64.3731 173.928L28 152.928Z" fill="#e5e5e5"/>
</g>
</g>
<defs>
<clipPath id="clip0">
<rect width="256" height="256" fill="white"/>
</clipPath>
</defs>
</svg>
