<svg width="37" height="56" viewBox="0 0 37 56" fill="none" xmlns="http://www.w3.org/2000/svg">
<path fill-rule="evenodd" clip-rule="evenodd" d="M27.5966 52.7377C36.3951 47.6578 39.4097 36.4072 34.3299 27.6087L34.3239 27.5983L18.39 0V0.0151138L2.64173 27.3069C-0.696008 32.8546 -0.998766 40.0004 2.46763 46.0044C7.54745 54.8029 18.7981 57.8175 27.5966 52.7377ZM7.456 36.464C8.42666 37.4347 9.67733 37.92 11.208 37.92C12.7387 37.92 13.9893 37.4347 14.96 36.464C15.9307 35.4933 16.416 34.1587 16.416 32.46C16.416 31.3213 16.192 30.3413 15.744 29.52C15.296 28.6987 14.6707 28.0733 13.868 27.644C13.084 27.2147 12.1973 27 11.208 27C10.2187 27 9.32267 27.2147 8.51999 27.644C7.736 28.0733 7.12 28.6987 6.672 29.52C6.224 30.3413 6 31.3213 6 32.46C6 34.1587 6.48533 35.4933 7.456 36.464ZM27.448 27.28H22.716L9.332 46.88H14.064L27.448 27.28ZM12.076 34.336C11.852 34.7093 11.5627 34.896 11.208 34.896C10.8533 34.896 10.5547 34.7093 10.312 34.336C10.088 33.944 9.976 33.3187 9.976 32.46C9.976 31.6013 10.088 30.9853 10.312 30.612C10.5547 30.22 10.8533 30.024 11.208 30.024C11.5627 30.024 11.852 30.22 12.076 30.612C12.3187 30.9853 12.44 31.6013 12.44 32.46C12.44 33.3187 12.3187 33.944 12.076 34.336ZM21.82 45.704C22.7907 46.6747 24.0413 47.16 25.572 47.16C27.1027 47.16 28.3533 46.6747 29.324 45.704C30.2947 44.7333 30.78 43.3987 30.78 41.7C30.78 40.5613 30.556 39.5813 30.108 38.76C29.66 37.9387 29.0347 37.3133 28.232 36.884C27.448 36.4547 26.5613 36.24 25.572 36.24C24.5827 36.24 23.6867 36.4547 22.884 36.884C22.1 37.3133 21.484 37.9387 21.036 38.76C20.588 39.5813 20.364 40.5613 20.364 41.7C20.364 43.3987 20.8493 44.7333 21.82 45.704ZM26.44 43.576C26.216 43.9493 25.9267 44.136 25.572 44.136C25.2173 44.136 24.9187 43.9493 24.676 43.576C24.452 43.184 24.34 42.5587 24.34 41.7C24.34 40.8413 24.452 40.2253 24.676 39.852C24.9187 39.46 25.2173 39.264 25.572 39.264C25.9267 39.264 26.216 39.46 26.44 39.852C26.6827 40.2253 26.804 40.8413 26.804 41.7C26.804 42.5587 26.6827 43.184 26.44 43.576Z" fill="white"/>
</svg>
