<svg width="128" height="128" viewBox="0 0 128 128" fill="none" xmlns="http://www.w3.org/2000/svg">
<g id="Frame 5">
<g id="cloud">
<mask id="path-1-inside-1" fill="white">
<path fill-rule="evenodd" clip-rule="evenodd" d="M31 82C22.7157 82 16 75.2843 16 67C16 58.7157 22.7157 52 31 52C31.055 52 31.1099 52.0003 31.1647 52.0009C32.6566 38.5006 44.102 28 58 28C68.2569 28 77.1779 33.7193 81.748 42.1427C84.5393 40.7706 87.6797 40 91 40C102.598 40 112 49.402 112 61C112 72.598 102.598 82 91 82H58H31Z"/>
</mask>
<path d="M31.1647 52.0009L31.1217 56.0007L34.7427 56.0396L35.1405 52.4403L31.1647 52.0009ZM81.748 42.1427L78.2322 44.0502L80.0644 47.4274L83.5126 45.7324L81.748 42.1427ZM31 78C24.9249 78 20 73.0751 20 67H12C12 77.4934 20.5066 86 31 86V78ZM20 67C20 60.9249 24.9249 56 31 56V48C20.5066 48 12 56.5066 12 67H20ZM31 56C31.0405 56 31.0811 56.0002 31.1217 56.0007L31.2077 48.0011C31.1386 48.0004 31.0694 48 31 48V56ZM35.1405 52.4403C36.4109 40.9443 46.1637 32 58 32V24C42.0404 24 28.9023 36.057 27.1889 51.5615L35.1405 52.4403ZM58 32C66.7319 32 74.3335 36.8645 78.2322 44.0502L85.2639 40.2351C80.0223 30.5741 69.7818 24 58 24V32ZM83.5126 45.7324C85.7669 44.6243 88.3049 44 91 44V36C87.0545 36 83.3117 36.9169 79.9834 38.5529L83.5126 45.7324ZM91 44C100.389 44 108 51.6112 108 61H116C116 47.1929 104.807 36 91 36V44ZM108 61C108 70.3888 100.389 78 91 78V86C104.807 86 116 74.8071 116 61H108ZM91 78H58V86H91V78ZM58 78H31V86H58V78Z" fill="white" fill-opacity="0.8" mask="url(#path-1-inside-1)"/>
</g>
</g>
</svg>
