<svg width="41" height="64" viewBox="0 0 41 64" fill="none" xmlns="http://www.w3.org/2000/svg">
<path d="M40.9924 45.565C41.0194 53.3936 34.6697 59.718 26.81 59.691C18.9503 59.664 12.5568 53.2959 12.5298 45.4673C12.5114 40.1252 15.4623 35.4835 19.8361 33.0825L40.9019 21.0101L40.9077 21L40.9923 45.5558C40.9924 45.5589 40.9924 45.5619 40.9924 45.565Z" fill="#41DAEF"/>
<path d="M16.6032 19.3296C16.6189 23.8962 12.915 27.5855 8.33013 27.5698C3.74529 27.554 0.015791 23.8392 4.99856e-05 19.2726C-0.0106914 16.1564 1.71065 13.4487 4.26201 12.0481L16.5504 5.00587L16.5538 5L16.6032 19.3296Z" fill="#41DAEF"/>
</svg>
