<svg width="57" height="64" viewBox="0 0 57 64" fill="none" xmlns="http://www.w3.org/2000/svg">
<path d="M28.4626 48.9276C28.4896 56.7562 22.1399 63.0806 14.2802 63.0536C6.4205 63.0266 0.0270705 56.6584 8.56917e-05 48.8299C-0.0183283 43.4878 2.93254 38.8461 7.3063 36.4451L28.3721 24.3727L28.378 24.3626L28.4626 48.9184C28.4626 48.9215 28.4626 48.9245 28.4626 48.9276Z" fill="#41DAEF"/>
<path d="M18.5848 14.3296C18.6005 18.8962 14.8966 22.5855 10.3117 22.5698C5.7269 22.554 1.9974 18.8392 1.98166 14.2726C1.97091 11.1564 3.69225 8.44873 6.24362 7.04811L18.532 0.00587267L18.5354 0L18.5848 14.3296Z" fill="#41DAEF"/>
<path d="M56.8915 26.7426C56.9118 32.614 52.1495 37.3573 46.2547 37.3371C40.3599 37.3169 35.5649 32.5407 35.5446 26.6693C35.5308 22.6628 37.744 19.1815 41.0243 17.3807L56.8237 8.32641L56.828 8.31886L56.8915 26.7426Z" fill="#41DAEF"/>
</svg>
