<svg width="256" height="256" viewBox="0 0 256 256" fill="none" xmlns="http://www.w3.org/2000/svg">
<circle cx="115" cy="128" r="94" stroke="white" stroke-width="4"/>
<mask id="path-2-inside-1" fill="white">
<path fill-rule="evenodd" clip-rule="evenodd" d="M76 197C59.4315 197 46 183.569 46 167C46 150.431 59.4315 137 76 137C76.1099 137 76.2197 137.001 76.3294 137.002C79.3132 110.001 102.204 89 130 89C150.514 89 168.356 100.439 177.496 117.285C183.079 114.541 189.359 113 196 113C219.196 113 238 131.804 238 155C238 178.196 219.196 197 196 197H130H76Z"/>
</mask>
<path d="M76.3294 137.002L76.2864 141.002L79.9074 141.04L80.3052 137.441L76.3294 137.002ZM177.496 117.285L173.98 119.193L175.812 122.57L179.261 120.875L177.496 117.285ZM76 193C61.6406 193 50 181.359 50 167H42C42 185.778 57.2223 201 76 201V193ZM50 167C50 152.641 61.6406 141 76 141V133C57.2223 133 42 148.222 42 167H50ZM76 141C76.0955 141 76.191 141.001 76.2864 141.002L76.3724 133.002C76.2485 133.001 76.1244 133 76 133V141ZM80.3052 137.441C83.0675 112.445 104.266 93 130 93V85C100.142 85 75.5589 107.558 72.3536 136.562L80.3052 137.441ZM130 93C148.989 93 165.511 103.584 173.98 119.193L181.012 115.378C171.2 97.2933 152.039 85 130 85V93ZM179.261 120.875C184.306 118.395 189.985 117 196 117V109C188.734 109 181.851 110.687 175.731 113.696L179.261 120.875ZM196 117C216.987 117 234 134.013 234 155H242C242 129.595 221.405 109 196 109V117ZM234 155C234 175.987 216.987 193 196 193V201C221.405 201 242 180.405 242 155H234ZM196 193H130V201H196V193ZM130 193H76V201H130V193Z" fill="white" mask="url(#path-2-inside-1)"/>
</svg>
