<svg width="310" height="174" viewBox="0 0 310 174" fill="none" xmlns="http://www.w3.org/2000/svg">
<g id="Frame 5">
<path id="sun" fill-rule="evenodd" clip-rule="evenodd" d="M256.091 99.4836C269.855 90.8083 279 75.4721 279 58C279 30.938 257.062 9 230 9C213.89 9 199.596 16.7746 190.664 28.7765C193.05 30.0228 195.344 31.4207 197.534 32.9576C205.032 23.2512 216.786 17 230 17C252.644 17 271 35.3563 271 58C271 72.313 263.666 84.9129 252.551 92.2468C254 94.4922 255.194 96.9182 256.091 99.4836Z" fill="#E1B000"/>
<path id="cloud" fill-rule="evenodd" clip-rule="evenodd" d="M88 137C65.3563 137 47 118.644 47 96C47 73.3563 65.3563 55 88 55C94.497 55 100.62 56.5054 106.059 59.1791L112.955 62.569L116.62 55.8146C125.94 38.6353 144.117 27 165 27C193.305 27 216.626 48.3887 219.664 75.8808L220.46 83.0796L227.702 83.0016C227.755 83.001 227.808 83.0006 227.861 83.0004C227.907 83.0001 227.953 83 228 83C242.912 83 255 95.0883 255 110C255 124.912 242.912 137 228 137V145C247.33 145 263 129.33 263 110C263 90.67 247.33 75 228 75C227.872 75 227.744 75.0007 227.616 75.0021C224.135 43.5014 197.429 19 165 19C141.067 19 120.252 32.3449 109.588 51.9996C103.075 48.798 95.7475 47 88 47C60.938 47 39 68.938 39 96C39 123.062 60.938 145 88 145V137Z" fill="white"/>
<g id="text">
<path d="M103.847 90.441C105.928 90.441 107.742 90.7834 109.287 91.4682C110.832 92.1529 112.023 93.1373 112.859 94.4213C113.696 95.7052 114.115 97.2032 114.115 98.9151C114.115 100.627 113.696 102.125 112.859 103.409C112.023 104.693 110.832 105.677 109.287 106.362C107.742 107.047 105.928 107.389 103.847 107.389H100.596V112.91H93V90.441H103.847ZM103.364 101.547C104.394 101.547 105.167 101.322 105.682 100.873C106.197 100.402 106.454 99.7497 106.454 98.9151C106.454 98.0805 106.197 97.4385 105.682 96.9892C105.167 96.5184 104.394 96.283 103.364 96.283H100.596V101.547H103.364Z" fill="white"/>
<path d="M116.695 95.3521H123.969V112.91H116.695V95.3521ZM120.332 93.9398C119.023 93.9398 117.961 93.5974 117.146 92.9126C116.352 92.2064 115.955 91.3184 115.955 90.2484C115.955 89.1785 116.352 88.3011 117.146 87.6163C117.961 86.9101 119.023 86.5571 120.332 86.5571C121.663 86.5571 122.725 86.8887 123.519 87.5521C124.313 88.2155 124.71 89.0715 124.71 90.12C124.71 91.2328 124.313 92.1529 123.519 92.8805C122.725 93.5867 121.663 93.9398 120.332 93.9398Z" fill="white"/>
<path d="M145.926 104.115C145.926 104.222 145.894 104.789 145.83 105.816H133.599C133.856 106.48 134.285 106.993 134.886 107.357C135.487 107.699 136.238 107.871 137.139 107.871C137.912 107.871 138.556 107.774 139.071 107.582C139.607 107.389 140.186 107.057 140.809 106.587L144.639 110.406C144.167 110.92 143.706 111.316 143.255 111.594C141.839 112.471 140.884 113.22 140.39 113.841C139.918 114.483 139.682 115.125 139.682 115.767C139.682 116.238 139.832 116.612 140.133 116.89C140.455 117.19 140.895 117.34 141.452 117.34C142.032 117.34 142.643 117.19 143.287 116.89L144.156 119.876C143.77 120.09 143.233 120.261 142.547 120.389C141.882 120.539 141.206 120.614 140.519 120.614C138.91 120.614 137.654 120.25 136.753 119.522C135.873 118.816 135.433 117.832 135.433 116.569C135.433 115.949 135.573 115.35 135.852 114.772C136.152 114.194 136.56 113.681 137.075 113.231H136.914C134.79 113.231 132.923 112.846 131.313 112.076C129.704 111.284 128.46 110.192 127.58 108.802C126.7 107.411 126.26 105.848 126.26 104.115C126.26 102.36 126.689 100.798 127.548 99.4287C128.427 98.0377 129.618 96.9571 131.12 96.1867C132.644 95.4163 134.35 95.0311 136.238 95.0311C138.019 95.0311 139.639 95.3842 141.098 96.0904C142.579 96.7966 143.748 97.8344 144.607 99.204C145.487 100.574 145.926 102.211 145.926 104.115ZM136.302 99.9743C135.551 99.9743 134.929 100.178 134.436 100.584C133.942 100.991 133.62 101.569 133.47 102.318H139.135C138.985 101.59 138.663 101.023 138.169 100.616C137.676 100.188 137.054 99.9743 136.302 99.9743Z" fill="white"/>
<path d="M156.655 107.518L155.496 108.769V112.91H148.222V89.0929H155.496V100.456L160.55 95.3521H169.144L161.869 102.96L169.723 112.91H160.936L156.655 107.518Z" fill="white"/>
<path d="M183.399 95.0311C185.566 95.0311 187.304 95.6838 188.613 96.9892C189.944 98.2945 190.609 100.263 190.609 102.895V112.91H183.335V104.147C183.335 102.136 182.616 101.13 181.178 101.13C180.363 101.13 179.698 101.419 179.183 101.997C178.689 102.553 178.442 103.441 178.442 104.661V112.91H171.168V95.3521H178.088V97.0855C178.775 96.4007 179.569 95.8871 180.47 95.5447C181.371 95.2023 182.348 95.0311 183.399 95.0311Z" fill="white"/>
<path d="M201.654 95.0311C204.744 95.0311 207.104 95.7266 208.735 97.1176C210.366 98.4871 211.181 100.606 211.181 103.473V112.91H204.422V110.599C203.585 112.354 201.922 113.231 199.433 113.231C198.038 113.231 196.847 112.996 195.86 112.525C194.895 112.033 194.154 111.38 193.639 110.567C193.146 109.732 192.899 108.802 192.899 107.774C192.899 106.041 193.564 104.725 194.895 103.826C196.225 102.927 198.242 102.478 200.946 102.478H203.875C203.639 101.109 202.534 100.424 200.56 100.424C199.766 100.424 198.961 100.552 198.146 100.809C197.33 101.044 196.633 101.376 196.053 101.804L193.736 97.0213C194.744 96.4007 195.957 95.9192 197.373 95.5768C198.811 95.213 200.238 95.0311 201.654 95.0311ZM201.622 108.866C202.137 108.866 202.598 108.727 203.006 108.448C203.413 108.17 203.714 107.753 203.907 107.197V105.977H202.105C200.624 105.977 199.884 106.469 199.884 107.453C199.884 107.86 200.034 108.202 200.334 108.481C200.656 108.737 201.085 108.866 201.622 108.866Z" fill="white"/>
<path d="M103.847 122.54C105.928 122.54 107.742 122.882 109.287 123.567C110.832 124.252 112.023 125.236 112.859 126.52C113.696 127.804 114.115 129.302 114.115 131.014C114.115 132.726 113.696 134.224 112.859 135.508C112.023 136.792 110.832 137.776 109.287 138.461C107.742 139.146 105.928 139.488 103.847 139.488H100.596V145.009H93V122.54H103.847ZM103.364 133.646C104.394 133.646 105.167 133.421 105.682 132.972C106.197 132.501 106.454 131.848 106.454 131.014C106.454 130.179 106.197 129.537 105.682 129.088C105.167 128.617 104.394 128.382 103.364 128.382H100.596V133.646H103.364Z" fill="white"/>
<path d="M125.683 145.33C123.73 145.33 121.971 144.945 120.404 144.174C118.859 143.383 117.647 142.302 116.767 140.932C115.887 139.541 115.447 137.969 115.447 136.214C115.447 134.459 115.887 132.897 116.767 131.527C117.647 130.136 118.859 129.056 120.404 128.285C121.971 127.515 123.73 127.13 125.683 127.13C127.657 127.13 129.416 127.515 130.961 128.285C132.528 129.056 133.74 130.136 134.599 131.527C135.478 132.897 135.918 134.459 135.918 136.214C135.918 137.969 135.478 139.541 134.599 140.932C133.74 142.302 132.528 143.383 130.961 144.174C129.416 144.945 127.657 145.33 125.683 145.33ZM125.683 139.681C126.52 139.681 127.206 139.381 127.743 138.782C128.279 138.161 128.547 137.305 128.547 136.214C128.547 135.122 128.279 134.277 127.743 133.678C127.206 133.079 126.52 132.779 125.683 132.779C124.846 132.779 124.159 133.079 123.623 133.678C123.086 134.277 122.818 135.122 122.818 136.214C122.818 137.305 123.086 138.161 123.623 138.782C124.159 139.381 124.846 139.681 125.683 139.681Z" fill="white"/>
<path d="M157.861 127.451V141.51C157.861 144.848 156.928 147.352 155.061 149.021C153.216 150.712 150.576 151.557 147.143 151.557C145.383 151.557 143.742 151.364 142.218 150.979C140.695 150.615 139.397 150.081 138.324 149.374L140.77 144.431C141.457 144.945 142.326 145.362 143.377 145.683C144.429 146.004 145.437 146.164 146.403 146.164C147.862 146.164 148.924 145.854 149.589 145.234C150.254 144.613 150.587 143.704 150.587 142.505V142.184C149.493 143.425 147.873 144.046 145.727 144.046C144.225 144.046 142.819 143.704 141.51 143.019C140.223 142.313 139.193 141.318 138.42 140.034C137.648 138.728 137.262 137.241 137.262 135.572C137.262 133.903 137.648 132.426 138.42 131.142C139.193 129.858 140.223 128.874 141.51 128.189C142.819 127.483 144.225 127.13 145.727 127.13C148.13 127.13 149.868 127.9 150.941 129.441V127.451H157.861ZM147.658 138.397C148.516 138.397 149.224 138.14 149.782 137.626C150.362 137.091 150.651 136.406 150.651 135.572C150.651 134.737 150.362 134.063 149.782 133.55C149.224 133.036 148.516 132.779 147.658 132.779C146.778 132.779 146.049 133.036 145.469 133.55C144.911 134.063 144.632 134.737 144.632 135.572C144.632 136.406 144.922 137.091 145.501 137.626C146.081 138.14 146.8 138.397 147.658 138.397Z" fill="white"/>
<path d="M170.38 145.33C168.427 145.33 166.668 144.945 165.101 144.174C163.556 143.383 162.344 142.302 161.464 140.932C160.584 139.541 160.145 137.969 160.145 136.214C160.145 134.459 160.584 132.897 161.464 131.527C162.344 130.136 163.556 129.056 165.101 128.285C166.668 127.515 168.427 127.13 170.38 127.13C172.354 127.13 174.114 127.515 175.659 128.285C177.225 129.056 178.438 130.136 179.296 131.527C180.176 132.897 180.616 134.459 180.616 136.214C180.616 137.969 180.176 139.541 179.296 140.932C178.438 142.302 177.225 143.383 175.659 144.174C174.114 144.945 172.354 145.33 170.38 145.33ZM170.38 139.681C171.217 139.681 171.904 139.381 172.44 138.782C172.977 138.161 173.245 137.305 173.245 136.214C173.245 135.122 172.977 134.277 172.44 133.678C171.904 133.079 171.217 132.779 170.38 132.779C169.543 132.779 168.857 133.079 168.32 133.678C167.784 134.277 167.515 135.122 167.515 136.214C167.515 137.305 167.784 138.161 168.32 138.782C168.857 139.381 169.543 139.681 170.38 139.681Z" fill="white"/>
<path d="M202.366 121.192V145.009H195.445V143.564C194.394 144.741 192.785 145.33 190.617 145.33C189.072 145.33 187.645 144.966 186.336 144.239C185.049 143.49 184.019 142.42 183.246 141.029C182.495 139.638 182.12 138.033 182.12 136.214C182.12 134.395 182.495 132.801 183.246 131.431C184.019 130.04 185.049 128.981 186.336 128.253C187.645 127.504 189.072 127.13 190.617 127.13C192.57 127.13 194.061 127.633 195.091 128.639V121.192H202.366ZM192.355 139.681C193.192 139.681 193.879 139.381 194.415 138.782C194.952 138.161 195.22 137.305 195.22 136.214C195.22 135.122 194.952 134.277 194.415 133.678C193.879 133.079 193.192 132.779 192.355 132.779C191.518 132.779 190.832 133.079 190.295 133.678C189.759 134.277 189.491 135.122 189.491 136.214C189.491 137.305 189.759 138.161 190.295 138.782C190.832 139.381 191.518 139.681 192.355 139.681Z" fill="white"/>
<path d="M213.473 127.13C216.563 127.13 218.923 127.825 220.554 129.216C222.185 130.586 223 132.704 223 135.572V145.009H216.241V142.698C215.404 144.453 213.741 145.33 211.252 145.33C209.857 145.33 208.666 145.095 207.679 144.624C206.713 144.132 205.973 143.479 205.458 142.666C204.964 141.831 204.718 140.9 204.718 139.873C204.718 138.14 205.383 136.824 206.713 135.925C208.044 135.026 210.061 134.577 212.765 134.577H215.694C215.457 133.207 214.352 132.522 212.378 132.522C211.584 132.522 210.78 132.651 209.964 132.908C209.149 133.143 208.451 133.475 207.872 133.903L205.555 129.12C206.563 128.499 207.775 128.018 209.192 127.676C210.629 127.312 212.056 127.13 213.473 127.13ZM213.44 140.964C213.955 140.964 214.417 140.825 214.824 140.547C215.232 140.269 215.533 139.852 215.726 139.295V138.076H213.923C212.443 138.076 211.702 138.568 211.702 139.552C211.702 139.959 211.853 140.301 212.153 140.579C212.475 140.836 212.904 140.964 213.44 140.964Z" fill="white"/>
</g>
</g>
</svg>
