<svg width="449" height="185" viewBox="0 0 449 185" fill="none" xmlns="http://www.w3.org/2000/svg">
<g clip-path="url(#clip0)">
<g filter="url(#filter0_d)">
<path fill-rule="evenodd" clip-rule="evenodd" d="M339.89 105.686C341.938 108.357 343.651 111.298 344.968 114.446C357.777 104.352 366 88.6987 366 71.125C366 40.6803 341.32 16 310.875 16C294.379 16 279.575 23.2459 269.473 34.7285C272.531 36.2616 275.462 38.0094 278.248 39.9522C286.464 31.3551 298.044 26 310.875 26C335.797 26 356 46.2031 356 71.125C356 84.998 349.74 97.4088 339.89 105.686Z" fill="#E1B000"/>
<path d="M344.968 114.446L343.815 114.928L344.449 116.446L345.741 115.428L344.968 114.446ZM339.89 105.686L339.086 104.73L338.171 105.499L338.898 106.447L339.89 105.686ZM269.473 34.7285L268.534 33.9028L267.464 35.1196L268.913 35.8459L269.473 34.7285ZM278.248 39.9522L277.533 40.9775L278.411 41.5903L279.152 40.8159L278.248 39.9522ZM346.121 113.964C344.763 110.715 342.995 107.681 340.882 104.926L338.898 106.447C340.881 109.033 342.54 111.881 343.815 114.928L346.121 113.964ZM364.75 71.125C364.75 88.2996 356.715 103.597 344.194 113.464L345.741 115.428C358.838 105.107 367.25 89.0979 367.25 71.125H364.75ZM310.875 17.25C340.629 17.25 364.75 41.3707 364.75 71.125H367.25C367.25 39.9899 342.01 14.75 310.875 14.75V17.25ZM270.411 35.5541C280.286 24.3298 294.753 17.25 310.875 17.25V14.75C294.005 14.75 278.864 22.1619 268.534 33.9028L270.411 35.5541ZM278.963 38.927C276.128 36.95 273.145 35.1713 270.033 33.6111L268.913 35.8459C271.916 37.3519 274.796 39.0689 277.533 40.9775L278.963 38.927ZM279.152 40.8159C287.142 32.4553 298.399 27.25 310.875 27.25V24.75C297.689 24.75 285.786 30.255 277.344 39.0886L279.152 40.8159ZM310.875 27.25C335.107 27.25 354.75 46.8935 354.75 71.125H357.25C357.25 45.5128 336.487 24.75 310.875 24.75V27.25ZM354.75 71.125C354.75 84.6133 348.665 96.6792 339.086 104.73L340.694 106.643C350.814 98.1384 357.25 85.3826 357.25 71.125H354.75Z" fill="#E1B000"/>
</g>
<g filter="url(#filter1_d)">
<path d="M37.84 74.8C41.3867 74.8 44.4667 75.3973 47.08 76.592C49.6933 77.7493 51.7093 79.4293 53.128 81.632C54.5467 83.7973 55.256 86.3547 55.256 89.304C55.256 92.2533 54.5467 94.8107 53.128 96.976C51.7093 99.1413 49.6933 100.821 47.08 102.016C44.4667 103.173 41.3867 103.752 37.84 103.752H31.008V114H19.92V74.8H37.84ZM37.168 95.016C39.4453 95.016 41.1627 94.5307 42.32 93.56C43.4773 92.552 44.056 91.1333 44.056 89.304C44.056 87.4747 43.4773 86.056 42.32 85.048C41.1627 84.04 39.4453 83.536 37.168 83.536H31.008V95.016H37.168ZM80.9771 114.784C76.8331 114.784 73.0997 113.907 69.7771 112.152C66.4917 110.397 63.8971 107.971 61.9931 104.872C60.1264 101.773 59.1931 98.2827 59.1931 94.4C59.1931 90.5173 60.1264 87.0267 61.9931 83.928C63.8971 80.8293 66.4917 78.4027 69.7771 76.648C73.0997 74.8933 76.8331 74.016 80.9771 74.016C85.1211 74.016 88.8357 74.8933 92.1211 76.648C95.4437 78.4027 98.0384 80.8293 99.9051 83.928C101.809 87.0267 102.761 90.5173 102.761 94.4C102.761 98.2827 101.809 101.773 99.9051 104.872C98.0384 107.971 95.4437 110.397 92.1211 112.152C88.8357 113.907 85.1211 114.784 80.9771 114.784ZM80.9771 105.6C82.9557 105.6 84.7477 105.133 86.3531 104.2C87.9584 103.267 89.2277 101.96 90.1611 100.28C91.0944 98.5627 91.5611 96.6027 91.5611 94.4C91.5611 92.1973 91.0944 90.256 90.1611 88.576C89.2277 86.8587 87.9584 85.5333 86.3531 84.6C84.7477 83.6667 82.9557 83.2 80.9771 83.2C78.9984 83.2 77.2064 83.6667 75.6011 84.6C73.9957 85.5333 72.7264 86.8587 71.7931 88.576C70.8597 90.256 70.3931 92.1973 70.3931 94.4C70.3931 96.6027 70.8597 98.5627 71.7931 100.28C72.7264 101.96 73.9957 103.267 75.6011 104.2C77.2064 105.133 78.9984 105.6 80.9771 105.6ZM134.832 93.56H144.632V109.8C142.392 111.405 139.816 112.637 136.904 113.496C133.992 114.355 131.08 114.784 128.168 114.784C124.062 114.784 120.366 113.925 117.08 112.208C113.795 110.453 111.219 108.027 109.352 104.928C107.486 101.829 106.552 98.32 106.552 94.4C106.552 90.48 107.486 86.9707 109.352 83.872C111.219 80.7733 113.814 78.3653 117.136 76.648C120.459 74.8933 124.211 74.016 128.392 74.016C132.051 74.016 135.336 74.632 138.248 75.864C141.16 77.096 143.587 78.8693 145.528 81.184L138.472 87.568C135.822 84.656 132.648 83.2 128.952 83.2C125.592 83.2 122.886 84.2267 120.832 86.28C118.779 88.296 117.752 91.0027 117.752 94.4C117.752 96.5653 118.219 98.5067 119.152 100.224C120.086 101.904 121.392 103.229 123.072 104.2C124.752 105.133 126.675 105.6 128.84 105.6C130.968 105.6 132.966 105.171 134.832 104.312V93.56ZM171.43 114.784C167.286 114.784 163.553 113.907 160.23 112.152C156.945 110.397 154.35 107.971 152.446 104.872C150.58 101.773 149.646 98.2827 149.646 94.4C149.646 90.5173 150.58 87.0267 152.446 83.928C154.35 80.8293 156.945 78.4027 160.23 76.648C163.553 74.8933 167.286 74.016 171.43 74.016C175.574 74.016 179.289 74.8933 182.574 76.648C185.897 78.4027 188.492 80.8293 190.358 83.928C192.262 87.0267 193.214 90.5173 193.214 94.4C193.214 98.2827 192.262 101.773 190.358 104.872C188.492 107.971 185.897 110.397 182.574 112.152C179.289 113.907 175.574 114.784 171.43 114.784ZM171.43 105.6C173.409 105.6 175.201 105.133 176.806 104.2C178.412 103.267 179.681 101.96 180.614 100.28C181.548 98.5627 182.014 96.6027 182.014 94.4C182.014 92.1973 181.548 90.256 180.614 88.576C179.681 86.8587 178.412 85.5333 176.806 84.6C175.201 83.6667 173.409 83.2 171.43 83.2C169.452 83.2 167.66 83.6667 166.054 84.6C164.449 85.5333 163.18 86.8587 162.246 88.576C161.313 90.256 160.846 92.1973 160.846 94.4C160.846 96.6027 161.313 98.5627 162.246 100.28C163.18 101.96 164.449 103.267 166.054 104.2C167.66 105.133 169.452 105.6 171.43 105.6ZM199.022 74.8H217.558C221.851 74.8 225.659 75.6027 228.982 77.208C232.304 78.8133 234.88 81.0907 236.71 84.04C238.539 86.9893 239.454 90.4427 239.454 94.4C239.454 98.3573 238.539 101.811 236.71 104.76C234.88 107.709 232.304 109.987 228.982 111.592C225.659 113.197 221.851 114 217.558 114H199.022V74.8ZM217.11 105.152C220.47 105.152 223.158 104.2 225.174 102.296C227.227 100.392 228.254 97.76 228.254 94.4C228.254 91.04 227.227 88.408 225.174 86.504C223.158 84.6 220.47 83.648 217.11 83.648H210.11V105.152H217.11ZM271.004 106.384H254.428L251.348 114H240.036L257.34 74.8H268.26L285.62 114H274.084L271.004 106.384ZM267.756 98.208L262.716 85.664L257.676 98.208H267.756ZM57.216 130.8V170H48.088L30.784 149.112V170H19.92V130.8H29.048L46.352 151.688V130.8H57.216ZM91.3012 162.384H74.7252L71.6452 170H60.3332L77.6372 130.8H88.5572L105.917 170H94.3812L91.3012 162.384ZM88.0532 154.208L83.0132 141.664L77.9732 154.208H88.0532Z" fill="white"/>
</g>
<g filter="url(#filter2_d)">
<path fill-rule="evenodd" clip-rule="evenodd" d="M299.248 100.349L298.253 91.3507C294.891 60.9232 269.078 37.25 237.75 37.25C216.778 37.25 198.269 47.8525 187.313 64.0253C187.201 63.9654 187.089 63.9059 186.976 63.8471C183.999 62.2945 180.857 61.2358 177.595 60.6281C190.116 40.5844 212.376 27.25 237.75 27.25C274.232 27.25 304.276 54.8141 308.193 90.2523C308.337 90.2508 308.481 90.25 308.625 90.25C326.508 90.25 341.606 102.171 346.406 118.5H335.82C331.436 107.793 320.911 100.25 308.625 100.25L308.493 100.25C308.429 100.251 308.364 100.251 308.3 100.252L299.248 100.349Z" fill="white"/>
<path d="M298.253 91.3507L299.496 91.2134L299.496 91.2134L298.253 91.3507ZM299.248 100.349L298.005 100.486L298.13 101.611L299.261 101.599L299.248 100.349ZM187.313 64.0253L186.722 65.127L187.716 65.6596L188.348 64.7264L187.313 64.0253ZM186.976 63.8471L187.554 62.7388L187.554 62.7388L186.976 63.8471ZM177.595 60.6281L176.535 59.9659L175.564 61.5211L177.366 61.857L177.595 60.6281ZM308.193 90.2523L306.95 90.3896L307.075 91.5144L308.206 91.5023L308.193 90.2523ZM346.406 118.5V119.75H348.077L347.606 118.147L346.406 118.5ZM335.82 118.5L334.663 118.974L334.981 119.75H335.82V118.5ZM308.625 100.25V99L308.622 99L308.625 100.25ZM308.493 100.25L308.49 99.0003L308.487 99.0003L308.493 100.25ZM308.3 100.252L308.287 99.0018L308.287 99.0018L308.3 100.252ZM297.011 91.488L298.005 100.486L300.49 100.212L299.496 91.2134L297.011 91.488ZM237.75 38.5C268.434 38.5 293.717 61.6872 297.011 91.488L299.496 91.2134C296.064 60.1593 269.722 36 237.75 36V38.5ZM188.348 64.7264C199.081 48.8826 217.209 38.5 237.75 38.5V36C216.346 36 197.457 46.8225 186.278 63.3243L188.348 64.7264ZM186.398 64.9554C186.507 65.012 186.615 65.0692 186.722 65.127L187.904 62.9237C187.788 62.8615 187.671 62.7998 187.554 62.7388L186.398 64.9554ZM177.366 61.857C180.512 62.4431 183.536 63.4626 186.398 64.9554L187.554 62.7388C184.462 61.1264 181.202 60.0286 177.824 59.3993L177.366 61.857ZM237.75 26C211.927 26 189.274 39.5719 176.535 59.9659L178.655 61.2904C190.957 41.5969 212.825 28.5 237.75 28.5V26ZM309.435 90.115C305.45 54.0505 274.876 26 237.75 26V28.5C273.588 28.5 303.103 55.5777 306.95 90.3896L309.435 90.115ZM308.625 89C308.476 89 308.328 89.0008 308.179 89.0024L308.206 91.5023C308.346 91.5008 308.485 91.5 308.625 91.5V89ZM347.606 118.147C342.653 101.301 327.077 89 308.625 89V91.5C325.938 91.5 340.559 103.041 345.207 118.853L347.606 118.147ZM335.82 119.75H346.406V117.25H335.82V119.75ZM308.625 101.5C320.386 101.5 330.464 108.72 334.663 118.974L336.977 118.026C332.407 106.866 321.436 99 308.625 99V101.5ZM308.496 101.5L308.628 101.5L308.622 99L308.49 99.0003L308.496 101.5ZM308.314 101.502C308.375 101.501 308.437 101.501 308.498 101.5L308.487 99.0003C308.42 99.0006 308.354 99.0011 308.287 99.0018L308.314 101.502ZM299.261 101.599L308.314 101.502L308.287 99.0018L299.234 99.0992L299.261 101.599ZM186.356 64.9326L186.686 65.1211L187.926 62.9501L187.596 62.7616L186.356 64.9326Z" fill="white"/>
</g>
<g filter="url(#filter3_d)">
<path d="M124.192 130.8H143.512C147.88 130.8 151.725 131.603 155.048 133.208C158.408 134.776 161.003 137.035 162.832 139.984C164.699 142.933 165.632 146.405 165.632 150.4C165.632 154.395 164.699 157.867 162.832 160.816C161.003 163.765 158.408 166.043 155.048 167.648C151.725 169.216 147.88 170 143.512 170H124.192V130.8ZM142.952 159.696C145.789 159.696 148.048 158.893 149.728 157.288C151.445 155.645 152.304 153.349 152.304 150.4C152.304 147.451 151.445 145.173 149.728 143.568C148.048 141.925 145.789 141.104 142.952 141.104H137.408V159.696H142.952ZM232.82 130.8L220.276 170H206.108L199.78 149.056L193.116 170H178.948L166.404 130.8H180.012L186.844 153.088L194.068 130.8H206.22L213.052 153.368L220.276 130.8H232.82ZM255.705 170.896C251.486 170.896 247.697 170.019 244.337 168.264C240.977 166.509 238.345 164.083 236.441 160.984C234.537 157.848 233.585 154.32 233.585 150.4C233.585 146.48 234.537 142.971 236.441 139.872C238.345 136.736 240.977 134.291 244.337 132.536C247.697 130.781 251.486 129.904 255.705 129.904C259.924 129.904 263.713 130.781 267.073 132.536C270.433 134.291 273.065 136.736 274.969 139.872C276.873 142.971 277.825 146.48 277.825 150.4C277.825 154.32 276.873 157.848 274.969 160.984C273.065 164.083 270.433 166.509 267.073 168.264C263.713 170.019 259.924 170.896 255.705 170.896ZM255.705 160.2C257.348 160.2 258.822 159.808 260.129 159.024C261.473 158.203 262.537 157.064 263.321 155.608C264.105 154.115 264.497 152.379 264.497 150.4C264.497 148.421 264.105 146.704 263.321 145.248C262.537 143.755 261.473 142.616 260.129 141.832C258.822 141.011 257.348 140.6 255.705 140.6C254.062 140.6 252.569 141.011 251.225 141.832C249.918 142.616 248.873 143.755 248.089 145.248C247.305 146.704 246.913 148.421 246.913 150.4C246.913 152.379 247.305 154.115 248.089 155.608C248.873 157.064 249.918 158.203 251.225 159.024C252.569 159.808 254.062 160.2 255.705 160.2ZM299.422 160.144H295.838V170H282.622V130.8H301.494C305.115 130.8 308.27 131.397 310.958 132.592C313.646 133.787 315.718 135.504 317.174 137.744C318.63 139.984 319.358 142.597 319.358 145.584C319.358 148.384 318.723 150.829 317.454 152.92C316.184 155.011 314.355 156.672 311.966 157.904L320.198 170H306.086L299.422 160.144ZM306.03 145.584C306.03 144.128 305.582 143.008 304.686 142.224C303.79 141.403 302.446 140.992 300.654 140.992H295.838V150.176H300.654C302.446 150.176 303.79 149.784 304.686 149C305.582 148.179 306.03 147.04 306.03 145.584ZM358.956 159.752V170H322.948V161.88L340.868 141.048H323.508V130.8H358.06V138.92L340.14 159.752H358.956ZM395.386 160.032V170H362.794V130.8H394.658V140.768H375.786V145.36H392.362V154.88H375.786V160.032H395.386ZM398.513 130.8H413.633L411.113 154.992H401.033L398.513 130.8ZM406.073 170.56C403.908 170.56 402.135 169.907 400.753 168.6C399.372 167.293 398.681 165.707 398.681 163.84C398.681 161.936 399.372 160.368 400.753 159.136C402.135 157.867 403.908 157.232 406.073 157.232C408.239 157.232 410.012 157.867 411.393 159.136C412.775 160.368 413.465 161.936 413.465 163.84C413.465 165.707 412.775 167.293 411.393 168.6C410.012 169.907 408.239 170.56 406.073 170.56Z" fill="#FF0000"/>
</g>
</g>
<defs>
<filter id="filter0_d" x="259.464" y="6.75" width="115.786" height="117.696" filterUnits="userSpaceOnUse" color-interpolation-filters="sRGB">
<feFlood flood-opacity="0" result="BackgroundImageFix"/>
<feColorMatrix in="SourceAlpha" type="matrix" values="0 0 0 0 0 0 0 0 0 0 0 0 0 0 0 0 0 0 127 0"/>
<feOffset/>
<feGaussianBlur stdDeviation="4"/>
<feColorMatrix type="matrix" values="0 0 0 0 0 0 0 0 0 0 0 0 0 0 0 0 0 0 0.5 0"/>
<feBlend mode="normal" in2="BackgroundImageFix" result="effect1_dropShadow"/>
<feBlend mode="normal" in="SourceGraphic" in2="effect1_dropShadow" result="shape"/>
</filter>
<filter id="filter1_d" x="11.92" y="66.016" width="281.7" height="111.984" filterUnits="userSpaceOnUse" color-interpolation-filters="sRGB">
<feFlood flood-opacity="0" result="BackgroundImageFix"/>
<feColorMatrix in="SourceAlpha" type="matrix" values="0 0 0 0 0 0 0 0 0 0 0 0 0 0 0 0 0 0 127 0"/>
<feOffset/>
<feGaussianBlur stdDeviation="4"/>
<feColorMatrix type="matrix" values="0 0 0 0 0 0 0 0 0 0 0 0 0 0 0 0 0 0 0.5 0"/>
<feBlend mode="normal" in2="BackgroundImageFix" result="effect1_dropShadow"/>
<feBlend mode="normal" in="SourceGraphic" in2="effect1_dropShadow" result="shape"/>
</filter>
<filter id="filter2_d" x="159.563" y="10" width="204.513" height="125.75" filterUnits="userSpaceOnUse" color-interpolation-filters="sRGB">
<feFlood flood-opacity="0" result="BackgroundImageFix"/>
<feColorMatrix in="SourceAlpha" type="matrix" values="0 0 0 0 0 0 0 0 0 0 0 0 0 0 0 0 0 0 127 0"/>
<feOffset/>
<feGaussianBlur stdDeviation="8"/>
<feColorMatrix type="matrix" values="0 0 0 0 0 0 0 0 0 0 0 0 0 0 0 0 0 0 0.5 0"/>
<feBlend mode="normal" in2="BackgroundImageFix" result="effect1_dropShadow"/>
<feBlend mode="normal" in="SourceGraphic" in2="effect1_dropShadow" result="shape"/>
</filter>
<filter id="filter3_d" x="109.192" y="114.904" width="319.441" height="70.992" filterUnits="userSpaceOnUse" color-interpolation-filters="sRGB">
<feFlood flood-opacity="0" result="BackgroundImageFix"/>
<feColorMatrix in="SourceAlpha" type="matrix" values="0 0 0 0 0 0 0 0 0 0 0 0 0 0 0 0 0 0 127 0"/>
<feOffset/>
<feGaussianBlur stdDeviation="7.5"/>
<feColorMatrix type="matrix" values="0 0 0 0 0 0 0 0 0 0 0 0 0 0 0 0 0 0 1 0"/>
<feBlend mode="normal" in2="BackgroundImageFix" result="effect1_dropShadow"/>
<feBlend mode="normal" in="SourceGraphic" in2="effect1_dropShadow" result="shape"/>
</filter>
<clipPath id="clip0">
<rect width="449" height="185" fill="white"/>
</clipPath>
</defs>
</svg>
