<svg width="449" height="192" viewBox="0 0 449 192" fill="none" xmlns="http://www.w3.org/2000/svg">
<g filter="url(#filter0_d)">
<path fill-rule="evenodd" clip-rule="evenodd" d="M278.248 42.9522C286.464 34.3551 298.044 29 310.875 29C335.797 29 356 49.2031 356 74.125C356 87.998 349.74 100.409 339.89 108.686C341.938 111.357 343.651 114.298 344.968 117.446C357.777 107.352 366 91.6987 366 74.125C366 43.6803 341.32 19 310.875 19C294.379 19 279.575 26.2459 269.473 37.7285C272.531 39.2616 275.462 41.0094 278.248 42.9522Z" fill="#E1B000" fill-opacity="0.01"/>
<path d="M278.248 42.9522L277.533 43.9775L278.411 44.5903L279.152 43.8159L278.248 42.9522ZM339.89 108.686L339.086 107.729L338.171 108.499L338.898 109.447L339.89 108.686ZM344.968 117.446L343.815 117.928L344.449 119.446L345.741 118.428L344.968 117.446ZM269.473 37.7285L268.534 36.9028L267.464 38.1195L268.913 38.8459L269.473 37.7285ZM279.152 43.8159C287.142 35.4553 298.399 30.25 310.875 30.25V27.75C297.689 27.75 285.786 33.255 277.344 42.0886L279.152 43.8159ZM310.875 30.25C335.107 30.25 354.75 49.8935 354.75 74.125H357.25C357.25 48.5128 336.487 27.75 310.875 27.75V30.25ZM354.75 74.125C354.75 87.6133 348.665 99.6792 339.086 107.729L340.694 109.643C350.814 101.138 357.25 88.3826 357.25 74.125H354.75ZM346.121 116.964C344.763 113.715 342.995 110.681 340.882 107.926L338.898 109.447C340.881 112.033 342.54 114.881 343.815 117.928L346.121 116.964ZM364.75 74.125C364.75 91.2996 356.715 106.597 344.194 116.464L345.741 118.428C358.838 108.107 367.25 92.0979 367.25 74.125H364.75ZM310.875 20.25C340.629 20.25 364.75 44.3707 364.75 74.125H367.25C367.25 42.9899 342.01 17.75 310.875 17.75V20.25ZM270.411 38.5541C280.286 27.3298 294.753 20.25 310.875 20.25V17.75C294.005 17.75 278.864 25.1619 268.534 36.9028L270.411 38.5541ZM278.963 41.927C276.128 39.95 273.145 38.1713 270.033 36.611L268.913 38.8459C271.916 40.3519 274.796 42.0689 277.533 43.9775L278.963 41.927Z" fill="#E1B000" fill-opacity="0.01"/>
</g>
<path fill-rule="evenodd" clip-rule="evenodd" d="M278.248 42.9522C286.464 34.3551 298.044 29 310.875 29C335.797 29 356 49.2031 356 74.125C356 87.998 349.74 100.409 339.89 108.686C341.938 111.357 343.651 114.298 344.968 117.446C357.777 107.352 366 91.6987 366 74.125C366 43.6803 341.32 19 310.875 19C294.379 19 279.575 26.2459 269.473 37.7285C272.531 39.2616 275.462 41.0094 278.248 42.9522Z" fill="#E1B000"/>
<path d="M278.248 42.9522L277.533 43.9775L278.411 44.5903L279.152 43.8159L278.248 42.9522ZM339.89 108.686L339.086 107.73L338.171 108.499L338.898 109.447L339.89 108.686ZM344.968 117.446L343.815 117.928L344.449 119.446L345.741 118.428L344.968 117.446ZM269.473 37.7285L268.534 36.9028L267.464 38.1195L268.913 38.8459L269.473 37.7285ZM279.152 43.8159C287.142 35.4553 298.399 30.25 310.875 30.25V27.75C297.689 27.75 285.786 33.255 277.344 42.0886L279.152 43.8159ZM310.875 30.25C335.107 30.25 354.75 49.8935 354.75 74.125H357.25C357.25 48.5128 336.487 27.75 310.875 27.75V30.25ZM354.75 74.125C354.75 87.6133 348.665 99.6792 339.086 107.73L340.694 109.643C350.814 101.138 357.25 88.3826 357.25 74.125H354.75ZM346.121 116.964C344.763 113.715 342.995 110.681 340.882 107.926L338.898 109.447C340.881 112.033 342.54 114.881 343.815 117.928L346.121 116.964ZM364.75 74.125C364.75 91.2996 356.715 106.597 344.194 116.464L345.741 118.428C358.838 108.107 367.25 92.0979 367.25 74.125H364.75ZM310.875 20.25C340.629 20.25 364.75 44.3707 364.75 74.125H367.25C367.25 42.9899 342.01 17.75 310.875 17.75V20.25ZM270.411 38.5541C280.286 27.3298 294.753 20.25 310.875 20.25V17.75C294.005 17.75 278.864 25.1619 268.534 36.9028L270.411 38.5541ZM278.963 41.927C276.128 39.95 273.145 38.1713 270.033 36.611L268.913 38.8459C271.916 40.3519 274.796 42.0689 277.533 43.9775L278.963 41.927Z" fill="#E1B000"/>
<g filter="url(#filter1_d)">
<path d="M37.84 77.8C41.3867 77.8 44.4667 78.3973 47.08 79.592C49.6933 80.7493 51.7093 82.4293 53.128 84.632C54.5467 86.7973 55.256 89.3547 55.256 92.304C55.256 95.2533 54.5467 97.8107 53.128 99.976C51.7093 102.141 49.6933 103.821 47.08 105.016C44.4667 106.173 41.3867 106.752 37.84 106.752H31.008V117H19.92V77.8H37.84ZM37.168 98.016C39.4453 98.016 41.1627 97.5307 42.32 96.56C43.4773 95.552 44.056 94.1333 44.056 92.304C44.056 90.4747 43.4773 89.056 42.32 88.048C41.1627 87.04 39.4453 86.536 37.168 86.536H31.008V98.016H37.168ZM80.9771 117.784C76.8331 117.784 73.0997 116.907 69.7771 115.152C66.4917 113.397 63.8971 110.971 61.9931 107.872C60.1264 104.773 59.1931 101.283 59.1931 97.4C59.1931 93.5173 60.1264 90.0267 61.9931 86.928C63.8971 83.8293 66.4917 81.4027 69.7771 79.648C73.0997 77.8933 76.8331 77.016 80.9771 77.016C85.1211 77.016 88.8357 77.8933 92.1211 79.648C95.4437 81.4027 98.0384 83.8293 99.9051 86.928C101.809 90.0267 102.761 93.5173 102.761 97.4C102.761 101.283 101.809 104.773 99.9051 107.872C98.0384 110.971 95.4437 113.397 92.1211 115.152C88.8357 116.907 85.1211 117.784 80.9771 117.784ZM80.9771 108.6C82.9557 108.6 84.7477 108.133 86.3531 107.2C87.9584 106.267 89.2277 104.96 90.1611 103.28C91.0944 101.563 91.5611 99.6027 91.5611 97.4C91.5611 95.1973 91.0944 93.256 90.1611 91.576C89.2277 89.8587 87.9584 88.5333 86.3531 87.6C84.7477 86.6667 82.9557 86.2 80.9771 86.2C78.9984 86.2 77.2064 86.6667 75.6011 87.6C73.9957 88.5333 72.7264 89.8587 71.7931 91.576C70.8597 93.256 70.3931 95.1973 70.3931 97.4C70.3931 99.6027 70.8597 101.563 71.7931 103.28C72.7264 104.96 73.9957 106.267 75.6011 107.2C77.2064 108.133 78.9984 108.6 80.9771 108.6ZM134.832 96.56H144.632V112.8C142.392 114.405 139.816 115.637 136.904 116.496C133.992 117.355 131.08 117.784 128.168 117.784C124.062 117.784 120.366 116.925 117.08 115.208C113.795 113.453 111.219 111.027 109.352 107.928C107.486 104.829 106.552 101.32 106.552 97.4C106.552 93.48 107.486 89.9707 109.352 86.872C111.219 83.7733 113.814 81.3653 117.136 79.648C120.459 77.8933 124.211 77.016 128.392 77.016C132.051 77.016 135.336 77.632 138.248 78.864C141.16 80.096 143.587 81.8693 145.528 84.184L138.472 90.568C135.822 87.656 132.648 86.2 128.952 86.2C125.592 86.2 122.886 87.2267 120.832 89.28C118.779 91.296 117.752 94.0027 117.752 97.4C117.752 99.5653 118.219 101.507 119.152 103.224C120.086 104.904 121.392 106.229 123.072 107.2C124.752 108.133 126.675 108.6 128.84 108.6C130.968 108.6 132.966 108.171 134.832 107.312V96.56ZM171.43 117.784C167.286 117.784 163.553 116.907 160.23 115.152C156.945 113.397 154.35 110.971 152.446 107.872C150.58 104.773 149.646 101.283 149.646 97.4C149.646 93.5173 150.58 90.0267 152.446 86.928C154.35 83.8293 156.945 81.4027 160.23 79.648C163.553 77.8933 167.286 77.016 171.43 77.016C175.574 77.016 179.289 77.8933 182.574 79.648C185.897 81.4027 188.492 83.8293 190.358 86.928C192.262 90.0267 193.214 93.5173 193.214 97.4C193.214 101.283 192.262 104.773 190.358 107.872C188.492 110.971 185.897 113.397 182.574 115.152C179.289 116.907 175.574 117.784 171.43 117.784ZM171.43 108.6C173.409 108.6 175.201 108.133 176.806 107.2C178.412 106.267 179.681 104.96 180.614 103.28C181.548 101.563 182.014 99.6027 182.014 97.4C182.014 95.1973 181.548 93.256 180.614 91.576C179.681 89.8587 178.412 88.5333 176.806 87.6C175.201 86.6667 173.409 86.2 171.43 86.2C169.452 86.2 167.66 86.6667 166.054 87.6C164.449 88.5333 163.18 89.8587 162.246 91.576C161.313 93.256 160.846 95.1973 160.846 97.4C160.846 99.6027 161.313 101.563 162.246 103.28C163.18 104.96 164.449 106.267 166.054 107.2C167.66 108.133 169.452 108.6 171.43 108.6ZM199.022 77.8H217.558C221.851 77.8 225.659 78.6027 228.982 80.208C232.304 81.8133 234.88 84.0907 236.71 87.04C238.539 89.9893 239.454 93.4427 239.454 97.4C239.454 101.357 238.539 104.811 236.71 107.76C234.88 110.709 232.304 112.987 228.982 114.592C225.659 116.197 221.851 117 217.558 117H199.022V77.8ZM217.11 108.152C220.47 108.152 223.158 107.2 225.174 105.296C227.227 103.392 228.254 100.76 228.254 97.4C228.254 94.04 227.227 91.408 225.174 89.504C223.158 87.6 220.47 86.648 217.11 86.648H210.11V108.152H217.11ZM271.004 109.384H254.428L251.348 117H240.036L257.34 77.8H268.26L285.62 117H274.084L271.004 109.384ZM267.756 101.208L262.716 88.664L257.676 101.208H267.756ZM57.216 133.8V173H48.088L30.784 152.112V173H19.92V133.8H29.048L46.352 154.688V133.8H57.216ZM91.3012 165.384H74.7252L71.6452 173H60.3332L77.6372 133.8H88.5572L105.917 173H94.3812L91.3012 165.384ZM88.0532 157.208L83.0132 144.664L77.9732 157.208H88.0532Z" fill="white" fill-opacity="0.01"/>
</g>
<path d="M37.84 77.8C41.3867 77.8 44.4667 78.3973 47.08 79.592C49.6933 80.7493 51.7093 82.4293 53.128 84.632C54.5467 86.7973 55.256 89.3547 55.256 92.304C55.256 95.2533 54.5467 97.8107 53.128 99.976C51.7093 102.141 49.6933 103.821 47.08 105.016C44.4667 106.173 41.3867 106.752 37.84 106.752H31.008V117H19.92V77.8H37.84ZM37.168 98.016C39.4453 98.016 41.1627 97.5307 42.32 96.56C43.4773 95.552 44.056 94.1333 44.056 92.304C44.056 90.4747 43.4773 89.056 42.32 88.048C41.1627 87.04 39.4453 86.536 37.168 86.536H31.008V98.016H37.168ZM80.9771 117.784C76.8331 117.784 73.0997 116.907 69.7771 115.152C66.4917 113.397 63.8971 110.971 61.9931 107.872C60.1264 104.773 59.1931 101.283 59.1931 97.4C59.1931 93.5173 60.1264 90.0267 61.9931 86.928C63.8971 83.8293 66.4917 81.4027 69.7771 79.648C73.0997 77.8933 76.8331 77.016 80.9771 77.016C85.1211 77.016 88.8357 77.8933 92.1211 79.648C95.4437 81.4027 98.0384 83.8293 99.9051 86.928C101.809 90.0267 102.761 93.5173 102.761 97.4C102.761 101.283 101.809 104.773 99.9051 107.872C98.0384 110.971 95.4437 113.397 92.1211 115.152C88.8357 116.907 85.1211 117.784 80.9771 117.784ZM80.9771 108.6C82.9557 108.6 84.7477 108.133 86.3531 107.2C87.9584 106.267 89.2277 104.96 90.1611 103.28C91.0944 101.563 91.5611 99.6027 91.5611 97.4C91.5611 95.1973 91.0944 93.256 90.1611 91.576C89.2277 89.8587 87.9584 88.5333 86.3531 87.6C84.7477 86.6667 82.9557 86.2 80.9771 86.2C78.9984 86.2 77.2064 86.6667 75.6011 87.6C73.9957 88.5333 72.7264 89.8587 71.7931 91.576C70.8597 93.256 70.3931 95.1973 70.3931 97.4C70.3931 99.6027 70.8597 101.563 71.7931 103.28C72.7264 104.96 73.9957 106.267 75.6011 107.2C77.2064 108.133 78.9984 108.6 80.9771 108.6ZM134.832 96.56H144.632V112.8C142.392 114.405 139.816 115.637 136.904 116.496C133.992 117.355 131.08 117.784 128.168 117.784C124.062 117.784 120.366 116.925 117.08 115.208C113.795 113.453 111.219 111.027 109.352 107.928C107.486 104.829 106.552 101.32 106.552 97.4C106.552 93.48 107.486 89.9707 109.352 86.872C111.219 83.7733 113.814 81.3653 117.136 79.648C120.459 77.8933 124.211 77.016 128.392 77.016C132.051 77.016 135.336 77.632 138.248 78.864C141.16 80.096 143.587 81.8693 145.528 84.184L138.472 90.568C135.822 87.656 132.648 86.2 128.952 86.2C125.592 86.2 122.886 87.2267 120.832 89.28C118.779 91.296 117.752 94.0027 117.752 97.4C117.752 99.5653 118.219 101.507 119.152 103.224C120.086 104.904 121.392 106.229 123.072 107.2C124.752 108.133 126.675 108.6 128.84 108.6C130.968 108.6 132.966 108.171 134.832 107.312V96.56ZM171.43 117.784C167.286 117.784 163.553 116.907 160.23 115.152C156.945 113.397 154.35 110.971 152.446 107.872C150.58 104.773 149.646 101.283 149.646 97.4C149.646 93.5173 150.58 90.0267 152.446 86.928C154.35 83.8293 156.945 81.4027 160.23 79.648C163.553 77.8933 167.286 77.016 171.43 77.016C175.574 77.016 179.289 77.8933 182.574 79.648C185.897 81.4027 188.492 83.8293 190.358 86.928C192.262 90.0267 193.214 93.5173 193.214 97.4C193.214 101.283 192.262 104.773 190.358 107.872C188.492 110.971 185.897 113.397 182.574 115.152C179.289 116.907 175.574 117.784 171.43 117.784ZM171.43 108.6C173.409 108.6 175.201 108.133 176.806 107.2C178.412 106.267 179.681 104.96 180.614 103.28C181.548 101.563 182.014 99.6027 182.014 97.4C182.014 95.1973 181.548 93.256 180.614 91.576C179.681 89.8587 178.412 88.5333 176.806 87.6C175.201 86.6667 173.409 86.2 171.43 86.2C169.452 86.2 167.66 86.6667 166.054 87.6C164.449 88.5333 163.18 89.8587 162.246 91.576C161.313 93.256 160.846 95.1973 160.846 97.4C160.846 99.6027 161.313 101.563 162.246 103.28C163.18 104.96 164.449 106.267 166.054 107.2C167.66 108.133 169.452 108.6 171.43 108.6ZM199.022 77.8H217.558C221.851 77.8 225.659 78.6027 228.982 80.208C232.304 81.8133 234.88 84.0907 236.71 87.04C238.539 89.9893 239.454 93.4427 239.454 97.4C239.454 101.357 238.539 104.811 236.71 107.76C234.88 110.709 232.304 112.987 228.982 114.592C225.659 116.197 221.851 117 217.558 117H199.022V77.8ZM217.11 108.152C220.47 108.152 223.158 107.2 225.174 105.296C227.227 103.392 228.254 100.76 228.254 97.4C228.254 94.04 227.227 91.408 225.174 89.504C223.158 87.6 220.47 86.648 217.11 86.648H210.11V108.152H217.11ZM271.004 109.384H254.428L251.348 117H240.036L257.34 77.8H268.26L285.62 117H274.084L271.004 109.384ZM267.756 101.208L262.716 88.664L257.676 101.208H267.756ZM57.216 133.8V173H48.088L30.784 152.112V173H19.92V133.8H29.048L46.352 154.688V133.8H57.216ZM91.3012 165.384H74.7252L71.6452 173H60.3332L77.6372 133.8H88.5572L105.917 173H94.3812L91.3012 165.384ZM88.0532 157.208L83.0132 144.664L77.9732 157.208H88.0532Z" fill="white"/>
<g filter="url(#filter2_d)">
<path fill-rule="evenodd" clip-rule="evenodd" d="M299.248 103.349L298.253 94.3507C294.891 63.9232 269.078 40.25 237.75 40.25C216.778 40.25 198.269 50.8525 187.313 67.0253C187.201 66.9653 187.089 66.9059 186.976 66.8471C183.999 65.2945 180.857 64.2358 177.595 63.6281C190.116 43.5844 212.376 30.25 237.75 30.25C274.232 30.25 304.276 57.8141 308.193 93.2523C308.337 93.2508 308.481 93.25 308.625 93.25C326.508 93.25 341.606 105.171 346.406 121.5H335.82C331.436 110.793 320.911 103.25 308.625 103.25C308.517 103.25 308.408 103.251 308.3 103.252L299.248 103.349Z" fill="white" fill-opacity="0.01"/>
<path d="M298.253 94.3507L299.496 94.2134L298.253 94.3507ZM299.248 103.349L298.005 103.486L298.13 104.611L299.261 104.599L299.248 103.349ZM187.313 67.0253L186.722 68.127L187.716 68.6596L188.348 67.7264L187.313 67.0253ZM186.976 66.8471L186.398 67.9554L186.398 67.9554L186.976 66.8471ZM177.595 63.6281L176.535 62.9659L175.564 64.5211L177.366 64.857L177.595 63.6281ZM308.193 93.2523L306.95 93.3896L307.075 94.5144L308.206 94.5023L308.193 93.2523ZM346.406 121.5V122.75H348.077L347.606 121.147L346.406 121.5ZM335.82 121.5L334.663 121.974L334.981 122.75H335.82V121.5ZM308.3 103.252L308.287 102.002H308.287L308.3 103.252ZM297.011 94.488L298.005 103.486L300.49 103.212L299.496 94.2134L297.011 94.488ZM237.75 41.5C268.434 41.5 293.717 64.6872 297.011 94.4881L299.496 94.2134C296.064 63.1593 269.722 39 237.75 39V41.5ZM188.348 67.7264C199.081 51.8826 217.209 41.5 237.75 41.5V39C216.346 39 197.457 49.8225 186.278 66.3243L188.348 67.7264ZM186.398 67.9554C186.507 68.012 186.615 68.0692 186.722 68.127L187.904 65.9237C187.788 65.8615 187.671 65.7998 187.554 65.7388L186.398 67.9554ZM177.366 64.857C180.512 65.4431 183.536 66.4626 186.398 67.9554L187.554 65.7388C184.462 64.1264 181.202 63.0286 177.824 62.3993L177.366 64.857ZM237.75 29C211.927 29 189.274 42.5719 176.535 62.9659L178.655 64.2904C190.957 44.5969 212.825 31.5 237.75 31.5V29ZM309.435 93.115C305.45 57.0505 274.876 29 237.75 29V31.5C273.588 31.5 303.103 58.5777 306.95 93.3896L309.435 93.115ZM308.625 92C308.476 92 308.328 92.0008 308.179 92.0024L308.206 94.5023C308.346 94.5008 308.485 94.5 308.625 94.5V92ZM347.606 121.147C342.653 104.301 327.077 92 308.625 92V94.5C325.938 94.5 340.559 106.041 345.207 121.853L347.606 121.147ZM335.82 122.75H346.406V120.25H335.82V122.75ZM308.625 104.5C320.386 104.5 330.464 111.72 334.663 121.974L336.977 121.026C332.407 109.866 321.436 102 308.625 102V104.5ZM308.314 104.502C308.417 104.501 308.521 104.5 308.625 104.5V102C308.512 102 308.399 102.001 308.287 102.002L308.314 104.502ZM299.261 104.599L308.314 104.502L308.287 102.002L299.234 102.099L299.261 104.599ZM186.356 67.9326L186.686 68.1211L187.926 65.9501L187.596 65.7616L186.356 67.9326Z" fill="white" fill-opacity="0.01"/>
</g>
<path fill-rule="evenodd" clip-rule="evenodd" d="M299.248 103.349L298.253 94.3507C294.891 63.9232 269.078 40.25 237.75 40.25C216.778 40.25 198.269 50.8525 187.313 67.0253C187.201 66.9653 187.089 66.9059 186.976 66.8471C183.999 65.2945 180.857 64.2358 177.595 63.6281C190.116 43.5844 212.376 30.25 237.75 30.25C274.232 30.25 304.276 57.8141 308.193 93.2523C308.337 93.2508 308.481 93.25 308.625 93.25C326.508 93.25 341.606 105.171 346.406 121.5H335.82C331.436 110.793 320.911 103.25 308.625 103.25L308.493 103.25C308.429 103.251 308.364 103.251 308.3 103.252L299.248 103.349Z" fill="white"/>
<path d="M298.253 94.3507L299.496 94.2134L299.496 94.2134L298.253 94.3507ZM299.248 103.349L298.005 103.486L298.13 104.611L299.261 104.599L299.248 103.349ZM187.313 67.0253L186.722 68.127L187.716 68.6596L188.348 67.7264L187.313 67.0253ZM186.976 66.8471L186.398 67.9554L186.398 67.9554L186.976 66.8471ZM177.595 63.6281L176.535 62.9659L175.564 64.5211L177.366 64.857L177.595 63.6281ZM308.193 93.2523L306.95 93.3896L307.075 94.5144L308.206 94.5023L308.193 93.2523ZM346.406 121.5V122.75H348.077L347.606 121.147L346.406 121.5ZM335.82 121.5L334.663 121.974L334.981 122.75H335.82V121.5ZM308.625 103.25V102L308.622 102L308.625 103.25ZM308.493 103.25L308.49 102L308.487 102L308.493 103.25ZM308.3 103.252L308.287 102.002L308.287 102.002L308.3 103.252ZM297.011 94.488L298.005 103.486L300.49 103.212L299.496 94.2134L297.011 94.488ZM237.75 41.5C268.434 41.5 293.717 64.6872 297.011 94.488L299.496 94.2134C296.064 63.1593 269.722 39 237.75 39V41.5ZM188.348 67.7264C199.081 51.8826 217.209 41.5 237.75 41.5V39C216.346 39 197.457 49.8225 186.278 66.3243L188.348 67.7264ZM186.398 67.9554C186.507 68.012 186.615 68.0692 186.722 68.127L187.904 65.9237C187.788 65.8615 187.671 65.7998 187.554 65.7388L186.398 67.9554ZM177.366 64.857C180.512 65.4431 183.536 66.4626 186.398 67.9554L187.554 65.7388C184.462 64.1264 181.202 63.0286 177.824 62.3993L177.366 64.857ZM237.75 29C211.927 29 189.274 42.5719 176.535 62.9659L178.655 64.2904C190.957 44.5969 212.825 31.5 237.75 31.5V29ZM309.435 93.115C305.45 57.0505 274.876 29 237.75 29V31.5C273.588 31.5 303.103 58.5777 306.95 93.3896L309.435 93.115ZM308.625 92C308.476 92 308.328 92.0008 308.179 92.0024L308.206 94.5023C308.346 94.5008 308.485 94.5 308.625 94.5V92ZM347.606 121.147C342.653 104.301 327.077 92 308.625 92V94.5C325.938 94.5 340.559 106.041 345.207 121.853L347.606 121.147ZM335.82 122.75H346.406V120.25H335.82V122.75ZM308.625 104.5C320.386 104.5 330.464 111.72 334.663 121.974L336.977 121.026C332.407 109.866 321.436 102 308.625 102V104.5ZM308.496 104.5L308.628 104.5L308.622 102L308.49 102L308.496 104.5ZM308.314 104.502C308.375 104.501 308.437 104.501 308.498 104.5L308.487 102C308.42 102.001 308.354 102.001 308.287 102.002L308.314 104.502ZM299.261 104.599L308.314 104.502L308.287 102.002L299.234 102.099L299.261 104.599ZM186.356 67.9326L186.686 68.1211L187.926 65.9501L187.596 65.7616L186.356 67.9326Z" fill="white"/>
<g filter="url(#filter3_d)">
<path d="M124.192 133.8H143.512C147.88 133.8 151.725 134.603 155.048 136.208C158.408 137.776 161.003 140.035 162.832 142.984C164.699 145.933 165.632 149.405 165.632 153.4C165.632 157.395 164.699 160.867 162.832 163.816C161.003 166.765 158.408 169.043 155.048 170.648C151.725 172.216 147.88 173 143.512 173H124.192V133.8ZM142.952 162.696C145.789 162.696 148.048 161.893 149.728 160.288C151.445 158.645 152.304 156.349 152.304 153.4C152.304 150.451 151.445 148.173 149.728 146.568C148.048 144.925 145.789 144.104 142.952 144.104H137.408V162.696H142.952ZM232.82 133.8L220.276 173H206.108L199.78 152.056L193.116 173H178.948L166.404 133.8H180.012L186.844 156.088L194.068 133.8H206.22L213.052 156.368L220.276 133.8H232.82ZM255.705 173.896C251.486 173.896 247.697 173.019 244.337 171.264C240.977 169.509 238.345 167.083 236.441 163.984C234.537 160.848 233.585 157.32 233.585 153.4C233.585 149.48 234.537 145.971 236.441 142.872C238.345 139.736 240.977 137.291 244.337 135.536C247.697 133.781 251.486 132.904 255.705 132.904C259.924 132.904 263.713 133.781 267.073 135.536C270.433 137.291 273.065 139.736 274.969 142.872C276.873 145.971 277.825 149.48 277.825 153.4C277.825 157.32 276.873 160.848 274.969 163.984C273.065 167.083 270.433 169.509 267.073 171.264C263.713 173.019 259.924 173.896 255.705 173.896ZM255.705 163.2C257.348 163.2 258.822 162.808 260.129 162.024C261.473 161.203 262.537 160.064 263.321 158.608C264.105 157.115 264.497 155.379 264.497 153.4C264.497 151.421 264.105 149.704 263.321 148.248C262.537 146.755 261.473 145.616 260.129 144.832C258.822 144.011 257.348 143.6 255.705 143.6C254.062 143.6 252.569 144.011 251.225 144.832C249.918 145.616 248.873 146.755 248.089 148.248C247.305 149.704 246.913 151.421 246.913 153.4C246.913 155.379 247.305 157.115 248.089 158.608C248.873 160.064 249.918 161.203 251.225 162.024C252.569 162.808 254.062 163.2 255.705 163.2ZM299.422 163.144H295.838V173H282.622V133.8H301.494C305.115 133.8 308.27 134.397 310.958 135.592C313.646 136.787 315.718 138.504 317.174 140.744C318.63 142.984 319.358 145.597 319.358 148.584C319.358 151.384 318.723 153.829 317.454 155.92C316.184 158.011 314.355 159.672 311.966 160.904L320.198 173H306.086L299.422 163.144ZM306.03 148.584C306.03 147.128 305.582 146.008 304.686 145.224C303.79 144.403 302.446 143.992 300.654 143.992H295.838V153.176H300.654C302.446 153.176 303.79 152.784 304.686 152C305.582 151.179 306.03 150.04 306.03 148.584ZM358.956 162.752V173H322.948V164.88L340.868 144.048H323.508V133.8H358.06V141.92L340.14 162.752H358.956ZM395.386 163.032V173H362.794V133.8H394.658V143.768H375.786V148.36H392.362V157.88H375.786V163.032H395.386ZM398.513 133.8H413.633L411.113 157.992H401.033L398.513 133.8ZM406.073 173.56C403.908 173.56 402.135 172.907 400.753 171.6C399.372 170.293 398.681 168.707 398.681 166.84C398.681 164.936 399.372 163.368 400.753 162.136C402.135 160.867 403.908 160.232 406.073 160.232C408.239 160.232 410.012 160.867 411.393 162.136C412.775 163.368 413.465 164.936 413.465 166.84C413.465 168.707 412.775 170.293 411.393 171.6C410.012 172.907 408.239 173.56 406.073 173.56Z" fill="#FF0000" fill-opacity="0.01"/>
</g>
<path d="M124.192 133.8H143.512C147.88 133.8 151.725 134.603 155.048 136.208C158.408 137.776 161.003 140.035 162.832 142.984C164.699 145.933 165.632 149.405 165.632 153.4C165.632 157.395 164.699 160.867 162.832 163.816C161.003 166.765 158.408 169.043 155.048 170.648C151.725 172.216 147.88 173 143.512 173H124.192V133.8ZM142.952 162.696C145.789 162.696 148.048 161.893 149.728 160.288C151.445 158.645 152.304 156.349 152.304 153.4C152.304 150.451 151.445 148.173 149.728 146.568C148.048 144.925 145.789 144.104 142.952 144.104H137.408V162.696H142.952ZM232.82 133.8L220.276 173H206.108L199.78 152.056L193.116 173H178.948L166.404 133.8H180.012L186.844 156.088L194.068 133.8H206.22L213.052 156.368L220.276 133.8H232.82ZM255.705 173.896C251.486 173.896 247.697 173.019 244.337 171.264C240.977 169.509 238.345 167.083 236.441 163.984C234.537 160.848 233.585 157.32 233.585 153.4C233.585 149.48 234.537 145.971 236.441 142.872C238.345 139.736 240.977 137.291 244.337 135.536C247.697 133.781 251.486 132.904 255.705 132.904C259.924 132.904 263.713 133.781 267.073 135.536C270.433 137.291 273.065 139.736 274.969 142.872C276.873 145.971 277.825 149.48 277.825 153.4C277.825 157.32 276.873 160.848 274.969 163.984C273.065 167.083 270.433 169.509 267.073 171.264C263.713 173.019 259.924 173.896 255.705 173.896ZM255.705 163.2C257.348 163.2 258.822 162.808 260.129 162.024C261.473 161.203 262.537 160.064 263.321 158.608C264.105 157.115 264.497 155.379 264.497 153.4C264.497 151.421 264.105 149.704 263.321 148.248C262.537 146.755 261.473 145.616 260.129 144.832C258.822 144.011 257.348 143.6 255.705 143.6C254.062 143.6 252.569 144.011 251.225 144.832C249.918 145.616 248.873 146.755 248.089 148.248C247.305 149.704 246.913 151.421 246.913 153.4C246.913 155.379 247.305 157.115 248.089 158.608C248.873 160.064 249.918 161.203 251.225 162.024C252.569 162.808 254.062 163.2 255.705 163.2ZM299.422 163.144H295.838V173H282.622V133.8H301.494C305.115 133.8 308.27 134.397 310.958 135.592C313.646 136.787 315.718 138.504 317.174 140.744C318.63 142.984 319.358 145.597 319.358 148.584C319.358 151.384 318.723 153.829 317.454 155.92C316.184 158.011 314.355 159.672 311.966 160.904L320.198 173H306.086L299.422 163.144ZM306.03 148.584C306.03 147.128 305.582 146.008 304.686 145.224C303.79 144.403 302.446 143.992 300.654 143.992H295.838V153.176H300.654C302.446 153.176 303.79 152.784 304.686 152C305.582 151.179 306.03 150.04 306.03 148.584ZM358.956 162.752V173H322.948V164.88L340.868 144.048H323.508V133.8H358.06V141.92L340.14 162.752H358.956ZM395.386 163.032V173H362.794V133.8H394.658V143.768H375.786V148.36H392.362V157.88H375.786V163.032H395.386ZM398.513 133.8H413.633L411.113 157.992H401.033L398.513 133.8ZM406.073 173.56C403.908 173.56 402.135 172.907 400.753 171.6C399.372 170.293 398.681 168.707 398.681 166.84C398.681 164.936 399.372 163.368 400.753 162.136C402.135 160.867 403.908 160.232 406.073 160.232C408.239 160.232 410.012 160.867 411.393 162.136C412.775 163.368 413.465 164.936 413.465 166.84C413.465 168.707 412.775 170.293 411.393 171.6C410.012 172.907 408.239 173.56 406.073 173.56Z" fill="#FF0000"/>
<defs>
<filter id="filter0_d" x="259.464" y="9.75" width="115.786" height="117.696" filterUnits="userSpaceOnUse" color-interpolation-filters="sRGB">
<feFlood flood-opacity="0" result="BackgroundImageFix"/>
<feColorMatrix in="SourceAlpha" type="matrix" values="0 0 0 0 0 0 0 0 0 0 0 0 0 0 0 0 0 0 127 0"/>
<feOffset/>
<feGaussianBlur stdDeviation="4"/>
<feColorMatrix type="matrix" values="0 0 0 0 0 0 0 0 0 0 0 0 0 0 0 0 0 0 0.5 0"/>
<feBlend mode="normal" in2="BackgroundImageFix" result="effect1_dropShadow"/>
<feBlend mode="normal" in="SourceGraphic" in2="effect1_dropShadow" result="shape"/>
</filter>
<filter id="filter1_d" x="11.9199" y="69.016" width="281.7" height="111.984" filterUnits="userSpaceOnUse" color-interpolation-filters="sRGB">
<feFlood flood-opacity="0" result="BackgroundImageFix"/>
<feColorMatrix in="SourceAlpha" type="matrix" values="0 0 0 0 0 0 0 0 0 0 0 0 0 0 0 0 0 0 127 0"/>
<feOffset/>
<feGaussianBlur stdDeviation="4"/>
<feColorMatrix type="matrix" values="0 0 0 0 0 0 0 0 0 0 0 0 0 0 0 0 0 0 0.5 0"/>
<feBlend mode="normal" in2="BackgroundImageFix" result="effect1_dropShadow"/>
<feBlend mode="normal" in="SourceGraphic" in2="effect1_dropShadow" result="shape"/>
</filter>
<filter id="filter2_d" x="159.563" y="13" width="204.513" height="125.75" filterUnits="userSpaceOnUse" color-interpolation-filters="sRGB">
<feFlood flood-opacity="0" result="BackgroundImageFix"/>
<feColorMatrix in="SourceAlpha" type="matrix" values="0 0 0 0 0 0 0 0 0 0 0 0 0 0 0 0 0 0 127 0"/>
<feOffset/>
<feGaussianBlur stdDeviation="8"/>
<feColorMatrix type="matrix" values="0 0 0 0 0 0 0 0 0 0 0 0 0 0 0 0 0 0 0.5 0"/>
<feBlend mode="normal" in2="BackgroundImageFix" result="effect1_dropShadow"/>
<feBlend mode="normal" in="SourceGraphic" in2="effect1_dropShadow" result="shape"/>
</filter>
<filter id="filter3_d" x="109.192" y="117.904" width="319.441" height="70.992" filterUnits="userSpaceOnUse" color-interpolation-filters="sRGB">
<feFlood flood-opacity="0" result="BackgroundImageFix"/>
<feColorMatrix in="SourceAlpha" type="matrix" values="0 0 0 0 0 0 0 0 0 0 0 0 0 0 0 0 0 0 127 0"/>
<feOffset/>
<feGaussianBlur stdDeviation="7.5"/>
<feColorMatrix type="matrix" values="0 0 0 0 0 0 0 0 0 0 0 0 0 0 0 0 0 0 1 0"/>
<feBlend mode="normal" in2="BackgroundImageFix" result="effect1_dropShadow"/>
<feBlend mode="normal" in="SourceGraphic" in2="effect1_dropShadow" result="shape"/>
</filter>
</defs>
</svg>
