<svg width="240" height="143" viewBox="0 0 240 143" fill="none" xmlns="http://www.w3.org/2000/svg">
<g id="Frame 6" clip-path="url(#clip0)">
<path id="sun" fill-rule="evenodd" clip-rule="evenodd" d="M151.664 19.7765C154.05 21.0228 156.344 22.4207 158.534 23.9576C166.032 14.2512 177.786 8 191 8C213.644 8 232 26.3563 232 49C232 63.313 224.666 75.9129 213.551 83.2468C215 85.4922 216.194 87.9182 217.091 90.4836C230.855 81.8083 240 66.4721 240 49C240 21.938 218.062 0 191 0C174.89 0 160.596 7.77459 151.664 19.7765Z" fill="#E1B000"/>
<path id="cloud" fill-rule="evenodd" clip-rule="evenodd" d="M49 128C26.3563 128 8 109.644 8 87C8 64.3563 26.3563 46 49 46C55.497 46 61.6197 47.5054 67.0588 50.1791L73.9551 53.569L77.6197 46.8146C86.9403 29.6353 105.117 18 126 18C154.305 18 177.626 39.3887 180.664 66.8808L181.46 74.0796L188.702 74.0016C188.755 74.001 188.808 74.0006 188.861 74.0004C188.907 74.0001 188.953 74 189 74C203.912 74 216 86.0883 216 101C216 115.912 203.912 128 189 128V136C208.33 136 224 120.33 224 101C224 81.67 208.33 66 189 66C188.872 66 188.744 66.0007 188.616 66.0021C185.135 34.5014 158.429 10 126 10C102.067 10 81.2516 23.3449 70.588 42.9996C64.0749 39.798 56.7475 38 49 38C21.938 38 0 59.938 0 87C0 114.062 21.938 136 49 136V128Z" fill="white"/>
<g id="text">
<path d="M64.8471 81.441C66.9285 81.441 68.7417 81.7834 70.2867 82.4682C71.8317 83.1529 73.0226 84.1373 73.8595 85.4213C74.6963 86.7052 75.1148 88.2032 75.1148 89.9151C75.1148 91.627 74.6963 93.125 73.8595 94.4089C73.0226 95.6929 71.8317 96.6772 70.2867 97.362C68.7417 98.0468 66.9285 98.3892 64.8471 98.3892H61.5962V103.91H54V81.441H64.8471ZM64.3643 92.5472C65.3942 92.5472 66.1667 92.3225 66.6817 91.8731C67.1967 91.4023 67.4542 90.7497 67.4542 89.9151C67.4542 89.0805 67.1967 88.4385 66.6817 87.9892C66.1667 87.5184 65.3942 87.283 64.3643 87.283H61.5962V92.5472H64.3643Z" fill="white"/>
<path d="M77.695 86.3521H84.9693V103.91H77.695V86.3521ZM81.3321 84.9398C80.0232 84.9398 78.961 84.5974 78.1456 83.9126C77.3517 83.2064 76.9547 82.3184 76.9547 81.2484C76.9547 80.1785 77.3517 79.3011 78.1456 78.6163C78.961 77.9101 80.0232 77.5571 81.3321 77.5571C82.6625 77.5571 83.7247 77.8887 84.5187 78.5521C85.3126 79.2155 85.7096 80.0715 85.7096 81.12C85.7096 82.2328 85.3126 83.1529 84.5187 83.8805C83.7247 84.5867 82.6625 84.9398 81.3321 84.9398Z" fill="white"/>
<path d="M106.926 95.1151C106.926 95.2221 106.894 95.7892 106.83 96.8163H94.5988C94.8563 97.4797 95.2854 97.9933 95.8863 98.3571C96.4871 98.6994 97.2381 98.8706 98.1394 98.8706C98.9118 98.8706 99.5556 98.7743 100.071 98.5818C100.607 98.3892 101.186 98.0575 101.809 97.5867L105.639 101.406C105.167 101.92 104.706 102.316 104.255 102.594C102.839 103.471 101.884 104.22 101.39 104.841C100.918 105.483 100.682 106.125 100.682 106.767C100.682 107.238 100.832 107.612 101.133 107.89C101.455 108.19 101.895 108.34 102.452 108.34C103.032 108.34 103.643 108.19 104.287 107.89L105.156 110.876C104.77 111.09 104.233 111.261 103.547 111.389C102.882 111.539 102.206 111.614 101.519 111.614C99.9096 111.614 98.6543 111.25 97.7531 110.522C96.8733 109.816 96.4334 108.832 96.4334 107.569C96.4334 106.949 96.5729 106.35 96.8519 105.772C97.1523 105.194 97.56 104.681 98.075 104.231H97.914C95.7897 104.231 93.9228 103.846 92.3135 103.076C90.7041 102.284 89.4596 101.192 88.5798 99.8015C87.7 98.4106 87.2601 96.8484 87.2601 95.1151C87.2601 93.3604 87.6893 91.7982 88.5476 90.4287C89.4274 89.0377 90.6183 87.9571 92.1204 87.1867C93.6439 86.4163 95.3498 86.0311 97.2381 86.0311C99.0191 86.0311 100.639 86.3842 102.098 87.0904C103.579 87.7966 104.748 88.8344 105.607 90.204C106.487 91.5735 106.926 93.2106 106.926 95.1151ZM97.3025 90.9743C96.5515 90.9743 95.9292 91.1776 95.4356 91.5842C94.9421 91.9908 94.6202 92.5686 94.47 93.3176H100.135C99.9847 92.59 99.6629 92.0229 99.1693 91.6163C98.6758 91.1883 98.0535 90.9743 97.3025 90.9743Z" fill="white"/>
<path d="M117.655 98.5176L116.496 99.7694V103.91H109.222V80.0929H116.496V91.4558L121.55 86.3521H130.144L122.869 93.9595L130.723 103.91H121.936L117.655 98.5176Z" fill="white"/>
<path d="M144.399 86.0311C146.566 86.0311 148.304 86.6838 149.613 87.9892C150.944 89.2945 151.609 91.2632 151.609 93.8953V103.91H144.335V95.1472C144.335 93.1357 143.616 92.1299 142.178 92.1299C141.363 92.1299 140.698 92.4188 140.183 92.9966C139.689 93.5529 139.442 94.441 139.442 95.6608V103.91H132.168V86.3521H139.088V88.0855C139.775 87.4007 140.569 86.8871 141.47 86.5447C142.371 86.2023 143.348 86.0311 144.399 86.0311Z" fill="white"/>
<path d="M162.654 86.0311C165.744 86.0311 168.104 86.7266 169.735 88.1176C171.366 89.4871 172.181 91.6056 172.181 94.4731V103.91H165.422V101.599C164.585 103.354 162.922 104.231 160.433 104.231C159.038 104.231 157.847 103.996 156.86 103.525C155.895 103.033 155.154 102.38 154.639 101.567C154.146 100.732 153.899 99.8015 153.899 98.7743C153.899 97.041 154.564 95.725 155.895 94.8262C157.225 93.9274 159.242 93.478 161.946 93.478H164.875C164.639 92.1085 163.534 91.4237 161.56 91.4237C160.766 91.4237 159.961 91.5521 159.146 91.8089C158.33 92.0443 157.633 92.376 157.053 92.804L154.736 88.0213C155.744 87.4007 156.957 86.9192 158.373 86.5768C159.811 86.213 161.238 86.0311 162.654 86.0311ZM162.622 99.8657C163.137 99.8657 163.598 99.7266 164.006 99.4484C164.413 99.1702 164.714 98.7529 164.907 98.1966V96.9768H163.105C161.624 96.9768 160.884 97.469 160.884 98.4534C160.884 98.8599 161.034 99.2023 161.334 99.4805C161.656 99.7373 162.085 99.8657 162.622 99.8657Z" fill="white"/>
<path d="M64.8471 113.54C66.9285 113.54 68.7417 113.882 70.2867 114.567C71.8317 115.252 73.0226 116.236 73.8595 117.52C74.6963 118.804 75.1148 120.302 75.1148 122.014C75.1148 123.726 74.6963 125.224 73.8595 126.508C73.0226 127.792 71.8317 128.776 70.2867 129.461C68.7417 130.146 66.9285 130.488 64.8471 130.488H61.5962V136.009H54V113.54H64.8471ZM64.3643 124.646C65.3942 124.646 66.1667 124.421 66.6817 123.972C67.1967 123.501 67.4542 122.848 67.4542 122.014C67.4542 121.179 67.1967 120.537 66.6817 120.088C66.1667 119.617 65.3942 119.382 64.3643 119.382H61.5962V124.646H64.3643Z" fill="white"/>
<path d="M86.6828 136.33C84.7301 136.33 82.9705 135.945 81.4041 135.174C79.8591 134.383 78.6467 133.302 77.7669 131.932C76.8871 130.541 76.4472 128.969 76.4472 127.214C76.4472 125.459 76.8871 123.897 77.7669 122.527C78.6467 121.136 79.8591 120.056 81.4041 119.285C82.9705 118.515 84.7301 118.13 86.6828 118.13C88.6569 118.13 90.4165 118.515 91.9614 119.285C93.5279 120.056 94.7403 121.136 95.5986 122.527C96.4784 123.897 96.9183 125.459 96.9183 127.214C96.9183 128.969 96.4784 130.541 95.5986 131.932C94.7403 133.302 93.5279 134.383 91.9614 135.174C90.4165 135.945 88.6569 136.33 86.6828 136.33ZM86.6828 130.681C87.5196 130.681 88.2063 130.381 88.7427 129.782C89.2792 129.161 89.5474 128.305 89.5474 127.214C89.5474 126.122 89.2792 125.277 88.7427 124.678C88.2063 124.079 87.5196 123.779 86.6828 123.779C85.8459 123.779 85.1592 124.079 84.6228 124.678C84.0863 125.277 83.8181 126.122 83.8181 127.214C83.8181 128.305 84.0863 129.161 84.6228 129.782C85.1592 130.381 85.8459 130.681 86.6828 130.681Z" fill="white"/>
<path d="M118.861 118.451V132.51C118.861 135.848 117.928 138.352 116.061 140.021C114.216 141.712 111.576 142.557 108.143 142.557C106.383 142.557 104.742 142.364 103.218 141.979C101.695 141.615 100.397 141.081 99.3237 140.374L101.77 135.431C102.457 135.945 103.326 136.362 104.377 136.683C105.429 137.004 106.437 137.164 107.403 137.164C108.862 137.164 109.924 136.854 110.589 136.234C111.254 135.613 111.587 134.704 111.587 133.505V133.184C110.493 134.425 108.873 135.046 106.727 135.046C105.225 135.046 103.819 134.704 102.51 134.019C101.223 133.313 100.193 132.318 99.4203 131.034C98.6478 129.728 98.2616 128.241 98.2616 126.572C98.2616 124.903 98.6478 123.426 99.4203 122.142C100.193 120.858 101.223 119.874 102.51 119.189C103.819 118.483 105.225 118.13 106.727 118.13C109.13 118.13 110.868 118.9 111.941 120.441V118.451H118.861ZM108.658 129.397C109.516 129.397 110.224 129.14 110.782 128.626C111.362 128.091 111.651 127.406 111.651 126.572C111.651 125.737 111.362 125.063 110.782 124.55C110.224 124.036 109.516 123.779 108.658 123.779C107.778 123.779 107.049 124.036 106.469 124.55C105.911 125.063 105.632 125.737 105.632 126.572C105.632 127.406 105.922 128.091 106.501 128.626C107.081 129.14 107.8 129.397 108.658 129.397Z" fill="white"/>
<path d="M131.38 136.33C129.427 136.33 127.668 135.945 126.101 135.174C124.556 134.383 123.344 133.302 122.464 131.932C121.584 130.541 121.145 128.969 121.145 127.214C121.145 125.459 121.584 123.897 122.464 122.527C123.344 121.136 124.556 120.056 126.101 119.285C127.668 118.515 129.427 118.13 131.38 118.13C133.354 118.13 135.114 118.515 136.659 119.285C138.225 120.056 139.438 121.136 140.296 122.527C141.176 123.897 141.616 125.459 141.616 127.214C141.616 128.969 141.176 130.541 140.296 131.932C139.438 133.302 138.225 134.383 136.659 135.174C135.114 135.945 133.354 136.33 131.38 136.33ZM131.38 130.681C132.217 130.681 132.904 130.381 133.44 129.782C133.977 129.161 134.245 128.305 134.245 127.214C134.245 126.122 133.977 125.277 133.44 124.678C132.904 124.079 132.217 123.779 131.38 123.779C130.543 123.779 129.857 124.079 129.32 124.678C128.784 125.277 128.515 126.122 128.515 127.214C128.515 128.305 128.784 129.161 129.32 129.782C129.857 130.381 130.543 130.681 131.38 130.681Z" fill="white"/>
<path d="M163.366 112.192V136.009H156.445V134.564C155.394 135.741 153.785 136.33 151.617 136.33C150.072 136.33 148.645 135.966 147.336 135.239C146.049 134.49 145.019 133.42 144.246 132.029C143.495 130.638 143.12 129.033 143.12 127.214C143.12 125.395 143.495 123.801 144.246 122.431C145.019 121.04 146.049 119.981 147.336 119.253C148.645 118.504 150.072 118.13 151.617 118.13C153.57 118.13 155.061 118.633 156.091 119.639V112.192H163.366ZM153.355 130.681C154.192 130.681 154.879 130.381 155.415 129.782C155.952 129.161 156.22 128.305 156.22 127.214C156.22 126.122 155.952 125.277 155.415 124.678C154.879 124.079 154.192 123.779 153.355 123.779C152.518 123.779 151.832 124.079 151.295 124.678C150.759 125.277 150.491 126.122 150.491 127.214C150.491 128.305 150.759 129.161 151.295 129.782C151.832 130.381 152.518 130.681 153.355 130.681Z" fill="white"/>
<path d="M174.473 118.13C177.563 118.13 179.923 118.825 181.554 120.216C183.185 121.586 184 123.704 184 126.572V136.009H177.241V133.698C176.404 135.453 174.741 136.33 172.252 136.33C170.857 136.33 169.666 136.095 168.679 135.624C167.713 135.132 166.973 134.479 166.458 133.666C165.964 132.831 165.718 131.9 165.718 130.873C165.718 129.14 166.383 127.824 167.713 126.925C169.044 126.026 171.061 125.577 173.765 125.577H176.694C176.457 124.207 175.352 123.522 173.378 123.522C172.584 123.522 171.78 123.651 170.964 123.908C170.149 124.143 169.451 124.475 168.872 124.903L166.555 120.12C167.563 119.499 168.775 119.018 170.192 118.676C171.629 118.312 173.056 118.13 174.473 118.13ZM174.44 131.964C174.955 131.964 175.417 131.825 175.824 131.547C176.232 131.269 176.533 130.852 176.726 130.295V129.076H174.923C173.443 129.076 172.702 129.568 172.702 130.552C172.702 130.959 172.853 131.301 173.153 131.579C173.475 131.836 173.904 131.964 174.44 131.964Z" fill="white"/>
</g>
</g>
<defs>
<clipPath id="clip0">
<rect width="240" height="143" fill="white"/>
</clipPath>
</defs>
</svg>
