<svg width="396" height="185" viewBox="0 0 396 185" fill="none" xmlns="http://www.w3.org/2000/svg">
<g clip-path="url(#clip0)">
<g filter="url(#filter0_d)">
<path fill-rule="evenodd" clip-rule="evenodd" d="M339.89 105.686C341.938 108.357 343.651 111.298 344.968 114.446C357.777 104.352 366 88.6987 366 71.125C366 40.6803 341.32 16 310.875 16C294.379 16 279.575 23.2459 269.473 34.7285C272.531 36.2616 275.462 38.0094 278.248 39.9522C286.464 31.3551 298.044 26 310.875 26C335.797 26 356 46.2031 356 71.125C356 84.998 349.74 97.4088 339.89 105.686Z" fill="#E1B000"/>
<path d="M344.968 114.446L343.815 114.928L344.449 116.446L345.741 115.428L344.968 114.446ZM339.89 105.686L339.086 104.73L338.171 105.499L338.898 106.447L339.89 105.686ZM269.473 34.7285L268.534 33.9028L267.464 35.1196L268.913 35.8459L269.473 34.7285ZM278.248 39.9522L277.533 40.9775L278.411 41.5903L279.152 40.8159L278.248 39.9522ZM346.121 113.964C344.763 110.715 342.995 107.681 340.882 104.926L338.898 106.447C340.881 109.033 342.54 111.881 343.815 114.928L346.121 113.964ZM364.75 71.125C364.75 88.2996 356.715 103.597 344.194 113.464L345.741 115.428C358.838 105.107 367.25 89.0979 367.25 71.125H364.75ZM310.875 17.25C340.629 17.25 364.75 41.3707 364.75 71.125H367.25C367.25 39.9899 342.01 14.75 310.875 14.75V17.25ZM270.411 35.5541C280.286 24.3298 294.753 17.25 310.875 17.25V14.75C294.005 14.75 278.864 22.1619 268.534 33.9028L270.411 35.5541ZM278.963 38.927C276.128 36.95 273.145 35.1713 270.033 33.6111L268.913 35.8459C271.916 37.3519 274.796 39.0689 277.533 40.9775L278.963 38.927ZM279.152 40.8159C287.142 32.4553 298.399 27.25 310.875 27.25V24.75C297.689 24.75 285.786 30.255 277.344 39.0886L279.152 40.8159ZM310.875 27.25C335.107 27.25 354.75 46.8935 354.75 71.125H357.25C357.25 45.5128 336.487 24.75 310.875 24.75V27.25ZM354.75 71.125C354.75 84.6133 348.665 96.6792 339.086 104.73L340.694 106.643C350.814 98.1384 357.25 85.3826 357.25 71.125H354.75Z" fill="#E1B000"/>
</g>
<g filter="url(#filter1_d)">
<path d="M37.84 74.8C41.3867 74.8 44.4667 75.3973 47.08 76.592C49.6933 77.7493 51.7093 79.4293 53.128 81.632C54.5467 83.7973 55.256 86.3547 55.256 89.304C55.256 92.2533 54.5467 94.8107 53.128 96.976C51.7093 99.1413 49.6933 100.821 47.08 102.016C44.4667 103.173 41.3867 103.752 37.84 103.752H31.008V114H19.92V74.8H37.84ZM37.168 95.016C39.4453 95.016 41.1627 94.5307 42.32 93.56C43.4773 92.552 44.056 91.1333 44.056 89.304C44.056 87.4747 43.4773 86.056 42.32 85.048C41.1627 84.04 39.4453 83.536 37.168 83.536H31.008V95.016H37.168ZM80.9771 114.784C76.8331 114.784 73.0997 113.907 69.7771 112.152C66.4917 110.397 63.8971 107.971 61.9931 104.872C60.1264 101.773 59.1931 98.2827 59.1931 94.4C59.1931 90.5173 60.1264 87.0267 61.9931 83.928C63.8971 80.8293 66.4917 78.4027 69.7771 76.648C73.0997 74.8933 76.8331 74.016 80.9771 74.016C85.1211 74.016 88.8357 74.8933 92.1211 76.648C95.4437 78.4027 98.0384 80.8293 99.9051 83.928C101.809 87.0267 102.761 90.5173 102.761 94.4C102.761 98.2827 101.809 101.773 99.9051 104.872C98.0384 107.971 95.4437 110.397 92.1211 112.152C88.8357 113.907 85.1211 114.784 80.9771 114.784ZM80.9771 105.6C82.9557 105.6 84.7477 105.133 86.3531 104.2C87.9584 103.267 89.2277 101.96 90.1611 100.28C91.0944 98.5627 91.5611 96.6027 91.5611 94.4C91.5611 92.1973 91.0944 90.256 90.1611 88.576C89.2277 86.8587 87.9584 85.5333 86.3531 84.6C84.7477 83.6667 82.9557 83.2 80.9771 83.2C78.9984 83.2 77.2064 83.6667 75.6011 84.6C73.9957 85.5333 72.7264 86.8587 71.7931 88.576C70.8597 90.256 70.3931 92.1973 70.3931 94.4C70.3931 96.6027 70.8597 98.5627 71.7931 100.28C72.7264 101.96 73.9957 103.267 75.6011 104.2C77.2064 105.133 78.9984 105.6 80.9771 105.6ZM134.832 93.56H144.632V109.8C142.392 111.405 139.816 112.637 136.904 113.496C133.992 114.355 131.08 114.784 128.168 114.784C124.062 114.784 120.366 113.925 117.08 112.208C113.795 110.453 111.219 108.027 109.352 104.928C107.486 101.829 106.552 98.32 106.552 94.4C106.552 90.48 107.486 86.9707 109.352 83.872C111.219 80.7733 113.814 78.3653 117.136 76.648C120.459 74.8933 124.211 74.016 128.392 74.016C132.051 74.016 135.336 74.632 138.248 75.864C141.16 77.096 143.587 78.8693 145.528 81.184L138.472 87.568C135.822 84.656 132.648 83.2 128.952 83.2C125.592 83.2 122.886 84.2267 120.832 86.28C118.779 88.296 117.752 91.0027 117.752 94.4C117.752 96.5653 118.219 98.5067 119.152 100.224C120.086 101.904 121.392 103.229 123.072 104.2C124.752 105.133 126.675 105.6 128.84 105.6C130.968 105.6 132.966 105.171 134.832 104.312V93.56ZM171.43 114.784C167.286 114.784 163.553 113.907 160.23 112.152C156.945 110.397 154.35 107.971 152.446 104.872C150.58 101.773 149.646 98.2827 149.646 94.4C149.646 90.5173 150.58 87.0267 152.446 83.928C154.35 80.8293 156.945 78.4027 160.23 76.648C163.553 74.8933 167.286 74.016 171.43 74.016C175.574 74.016 179.289 74.8933 182.574 76.648C185.897 78.4027 188.492 80.8293 190.358 83.928C192.262 87.0267 193.214 90.5173 193.214 94.4C193.214 98.2827 192.262 101.773 190.358 104.872C188.492 107.971 185.897 110.397 182.574 112.152C179.289 113.907 175.574 114.784 171.43 114.784ZM171.43 105.6C173.409 105.6 175.201 105.133 176.806 104.2C178.412 103.267 179.681 101.96 180.614 100.28C181.548 98.5627 182.014 96.6027 182.014 94.4C182.014 92.1973 181.548 90.256 180.614 88.576C179.681 86.8587 178.412 85.5333 176.806 84.6C175.201 83.6667 173.409 83.2 171.43 83.2C169.452 83.2 167.66 83.6667 166.054 84.6C164.449 85.5333 163.18 86.8587 162.246 88.576C161.313 90.256 160.846 92.1973 160.846 94.4C160.846 96.6027 161.313 98.5627 162.246 100.28C163.18 101.96 164.449 103.267 166.054 104.2C167.66 105.133 169.452 105.6 171.43 105.6ZM199.022 74.8H217.558C221.851 74.8 225.659 75.6027 228.982 77.208C232.304 78.8133 234.88 81.0907 236.71 84.04C238.539 86.9893 239.454 90.4427 239.454 94.4C239.454 98.3573 238.539 101.811 236.71 104.76C234.88 107.709 232.304 109.987 228.982 111.592C225.659 113.197 221.851 114 217.558 114H199.022V74.8ZM217.11 105.152C220.47 105.152 223.158 104.2 225.174 102.296C227.227 100.392 228.254 97.76 228.254 94.4C228.254 91.04 227.227 88.408 225.174 86.504C223.158 84.6 220.47 83.648 217.11 83.648H210.11V105.152H217.11ZM271.004 106.384H254.428L251.348 114H240.036L257.34 74.8H268.26L285.62 114H274.084L271.004 106.384ZM267.756 98.208L262.716 85.664L257.676 98.208H267.756ZM57.216 130.8V170H48.088L30.784 149.112V170H19.92V130.8H29.048L46.352 151.688V130.8H57.216ZM91.3012 162.384H74.7252L71.6452 170H60.3332L77.6372 130.8H88.5572L105.917 170H94.3812L91.3012 162.384ZM88.0532 154.208L83.0132 141.664L77.9732 154.208H88.0532ZM143.278 130.8C146.824 130.8 149.904 131.397 152.518 132.592C155.131 133.749 157.147 135.429 158.566 137.632C159.984 139.797 160.694 142.355 160.694 145.304C160.694 148.253 159.984 150.811 158.566 152.976C157.147 155.141 155.131 156.821 152.518 158.016C149.904 159.173 146.824 159.752 143.278 159.752H136.446V170H125.358V130.8H143.278ZM142.606 151.016C144.883 151.016 146.6 150.531 147.758 149.56C148.915 148.552 149.494 147.133 149.494 145.304C149.494 143.475 148.915 142.056 147.758 141.048C146.6 140.04 144.883 139.536 142.606 139.536H136.446V151.016H142.606ZM186.415 170.784C182.271 170.784 178.537 169.907 175.215 168.152C171.929 166.397 169.335 163.971 167.431 160.872C165.564 157.773 164.631 154.283 164.631 150.4C164.631 146.517 165.564 143.027 167.431 139.928C169.335 136.829 171.929 134.403 175.215 132.648C178.537 130.893 182.271 130.016 186.415 130.016C190.559 130.016 194.273 130.893 197.559 132.648C200.881 134.403 203.476 136.829 205.343 139.928C207.247 143.027 208.199 146.517 208.199 150.4C208.199 154.283 207.247 157.773 205.343 160.872C203.476 163.971 200.881 166.397 197.559 168.152C194.273 169.907 190.559 170.784 186.415 170.784ZM186.415 161.6C188.393 161.6 190.185 161.133 191.791 160.2C193.396 159.267 194.665 157.96 195.599 156.28C196.532 154.563 196.999 152.603 196.999 150.4C196.999 148.197 196.532 146.256 195.599 144.576C194.665 142.859 193.396 141.533 191.791 140.6C190.185 139.667 188.393 139.2 186.415 139.2C184.436 139.2 182.644 139.667 181.039 140.6C179.433 141.533 178.164 142.859 177.231 144.576C176.297 146.256 175.831 148.197 175.831 150.4C175.831 152.603 176.297 154.563 177.231 156.28C178.164 157.96 179.433 159.267 181.039 160.2C182.644 161.133 184.436 161.6 186.415 161.6ZM214.006 130.8H225.094V161.208H243.798V170H214.006V130.8ZM265.891 170.784C260.067 170.784 255.531 169.197 252.283 166.024C249.072 162.851 247.467 158.352 247.467 152.528V130.8H258.555V152.192C258.555 158.464 261.037 161.6 266.003 161.6C270.931 161.6 273.395 158.464 273.395 152.192V130.8H284.315V152.528C284.315 158.352 282.691 162.851 279.443 166.024C276.232 169.197 271.715 170.784 265.891 170.784Z" fill="white"/>
</g>
<g filter="url(#filter2_d)">
<path fill-rule="evenodd" clip-rule="evenodd" d="M299.248 100.349L298.253 91.3507C294.891 60.9232 269.078 37.25 237.75 37.25C216.778 37.25 198.269 47.8525 187.313 64.0253C187.201 63.9654 187.089 63.9059 186.976 63.8471C183.999 62.2945 180.857 61.2358 177.595 60.6281C190.116 40.5844 212.376 27.25 237.75 27.25C274.232 27.25 304.276 54.8141 308.193 90.2523C308.337 90.2508 308.481 90.25 308.625 90.25C330.371 90.25 348 107.879 348 129.625C348 151.371 330.371 169 308.625 169H294.352C296.59 165.987 298.071 162.602 298.92 159H308.625C324.848 159 338 145.848 338 129.625C338 113.402 324.848 100.25 308.625 100.25L308.506 100.25C308.437 100.251 308.369 100.251 308.3 100.252L299.248 100.349Z" fill="white"/>
<path d="M298.253 91.3507L299.496 91.2134L299.496 91.2134L298.253 91.3507ZM299.248 100.349L298.005 100.486L298.13 101.611L299.261 101.599L299.248 100.349ZM187.313 64.0253L186.722 65.127L187.716 65.6596L188.348 64.7264L187.313 64.0253ZM186.976 63.8471L187.554 62.7388L187.554 62.7388L186.976 63.8471ZM177.595 60.6281L176.535 59.9659L175.564 61.5211L177.366 61.857L177.595 60.6281ZM308.193 90.2523L306.95 90.3896L307.075 91.5144L308.206 91.5023L308.193 90.2523ZM294.352 169L293.348 168.254L291.866 170.25H294.352V169ZM298.92 159V157.75H297.931L297.704 158.713L298.92 159ZM308.625 100.25L308.625 99L308.623 99L308.625 100.25ZM308.506 100.25L308.503 99.0002L308.501 99.0002L308.506 100.25ZM308.3 100.252L308.287 99.0018L308.287 99.0018L308.3 100.252ZM297.011 91.488L298.005 100.486L300.49 100.212L299.496 91.2134L297.011 91.488ZM237.75 38.5C268.434 38.5 293.717 61.6872 297.011 91.488L299.496 91.2134C296.064 60.1593 269.722 36 237.75 36V38.5ZM188.348 64.7264C199.081 48.8826 217.209 38.5 237.75 38.5V36C216.346 36 197.457 46.8225 186.278 63.3243L188.348 64.7264ZM186.398 64.9554C186.507 65.012 186.615 65.0692 186.722 65.127L187.904 62.9237C187.788 62.8615 187.671 62.7998 187.554 62.7388L186.398 64.9554ZM177.366 61.857C180.512 62.4431 183.536 63.4626 186.398 64.9554L187.554 62.7388C184.462 61.1264 181.202 60.0286 177.824 59.3993L177.366 61.857ZM237.75 26C211.927 26 189.274 39.5719 176.535 59.9659L178.655 61.2904C190.957 41.5969 212.825 28.5 237.75 28.5V26ZM309.435 90.115C305.45 54.0505 274.876 26 237.75 26V28.5C273.588 28.5 303.103 55.5777 306.95 90.3896L309.435 90.115ZM308.625 89C308.476 89 308.328 89.0008 308.179 89.0024L308.206 91.5023C308.346 91.5008 308.485 91.5 308.625 91.5V89ZM349.25 129.625C349.25 107.188 331.062 89 308.625 89V91.5C329.681 91.5 346.75 108.569 346.75 129.625H349.25ZM308.625 170.25C331.062 170.25 349.25 152.062 349.25 129.625H346.75C346.75 150.681 329.681 167.75 308.625 167.75V170.25ZM294.352 170.25H308.625V167.75H294.352V170.25ZM297.704 158.713C296.889 162.168 295.475 165.393 293.348 168.254L295.355 169.746C297.706 166.582 299.253 163.037 300.137 159.287L297.704 158.713ZM308.625 157.75H298.92V160.25H308.625V157.75ZM336.75 129.625C336.75 145.158 324.158 157.75 308.625 157.75V160.25C325.539 160.25 339.25 146.539 339.25 129.625H336.75ZM308.625 101.5C324.158 101.5 336.75 114.092 336.75 129.625H339.25C339.25 112.711 325.539 99 308.625 99V101.5ZM308.508 101.5L308.628 101.5L308.623 99L308.503 99.0002L308.508 101.5ZM308.314 101.502C308.38 101.501 308.445 101.5 308.511 101.5L308.501 99.0002C308.43 99.0005 308.358 99.0011 308.287 99.0018L308.314 101.502ZM299.261 101.599L308.314 101.502L308.287 99.0018L299.234 99.0992L299.261 101.599ZM186.356 64.9326L186.686 65.1211L187.926 62.9501L187.596 62.7616L186.356 64.9326Z" fill="white"/>
</g>
</g>
<defs>
<filter id="filter0_d" x="259.464" y="6.75" width="115.786" height="117.696" filterUnits="userSpaceOnUse" color-interpolation-filters="sRGB">
<feFlood flood-opacity="0" result="BackgroundImageFix"/>
<feColorMatrix in="SourceAlpha" type="matrix" values="0 0 0 0 0 0 0 0 0 0 0 0 0 0 0 0 0 0 127 0"/>
<feOffset/>
<feGaussianBlur stdDeviation="4"/>
<feColorMatrix type="matrix" values="0 0 0 0 0 0 0 0 0 0 0 0 0 0 0 0 0 0 0.5 0"/>
<feBlend mode="normal" in2="BackgroundImageFix" result="effect1_dropShadow"/>
<feBlend mode="normal" in="SourceGraphic" in2="effect1_dropShadow" result="shape"/>
</filter>
<filter id="filter1_d" x="11.92" y="66.016" width="281.7" height="112.768" filterUnits="userSpaceOnUse" color-interpolation-filters="sRGB">
<feFlood flood-opacity="0" result="BackgroundImageFix"/>
<feColorMatrix in="SourceAlpha" type="matrix" values="0 0 0 0 0 0 0 0 0 0 0 0 0 0 0 0 0 0 127 0"/>
<feOffset/>
<feGaussianBlur stdDeviation="4"/>
<feColorMatrix type="matrix" values="0 0 0 0 0 0 0 0 0 0 0 0 0 0 0 0 0 0 0.5 0"/>
<feBlend mode="normal" in2="BackgroundImageFix" result="effect1_dropShadow"/>
<feBlend mode="normal" in="SourceGraphic" in2="effect1_dropShadow" result="shape"/>
</filter>
<filter id="filter2_d" x="159.563" y="10" width="205.686" height="176.25" filterUnits="userSpaceOnUse" color-interpolation-filters="sRGB">
<feFlood flood-opacity="0" result="BackgroundImageFix"/>
<feColorMatrix in="SourceAlpha" type="matrix" values="0 0 0 0 0 0 0 0 0 0 0 0 0 0 0 0 0 0 127 0"/>
<feOffset/>
<feGaussianBlur stdDeviation="8"/>
<feColorMatrix type="matrix" values="0 0 0 0 0 0 0 0 0 0 0 0 0 0 0 0 0 0 0.5 0"/>
<feBlend mode="normal" in2="BackgroundImageFix" result="effect1_dropShadow"/>
<feBlend mode="normal" in="SourceGraphic" in2="effect1_dropShadow" result="shape"/>
</filter>
<clipPath id="clip0">
<rect width="396" height="185" fill="white"/>
</clipPath>
</defs>
</svg>
