<?xml version="1.0" encoding="UTF-8"?>
<!DOCTYPE svg PUBLIC "-//W3C//DTD SVG 1.1//EN" "http://www.w3.org/Graphics/SVG/1.1/DTD/svg11.dtd">
<!-- Creator: CorelDRAW X6 -->
<svg xmlns="http://www.w3.org/2000/svg" xml:space="preserve" width="223px" height="256px" version="1.1" style="shape-rendering:geometricPrecision; text-rendering:geometricPrecision; image-rendering:optimizeQuality; fill-rule:evenodd; clip-rule:evenodd"
viewBox="0 0 34 39"
 xmlns:xlink="http://www.w3.org/1999/xlink">
 <defs>
  <style type="text/css">
   <![CDATA[
    .fil0 {fill:black;fill-rule:nonzero}
   ]]>
  </style>
 </defs>
 <g id="Warstwa_x0020_1">
  <metadata id="CorelCorpID_0Corel-Layer"/>
  <path class="fil0" d="M1 12c-1,0 -1,-1 0,-2 0,-1 1,-1 2,0l32 18c1,0 1,1 0,2 0,1 -1,1 -2,0l-32 -18z"/>
  <path class="fil0" d="M32 23c1,0 1,0 2,0 0,1 0,1 0,2l-3 2 0 4c0,1 -1,1 -1,1 -1,0 -1,-1 -1,-1l0 -5 0 -1 1 0 4 -2z"/>
  <path class="fil0" d="M26 29c0,1 -1,1 -1,1 -1,0 -1,-1 -1,-1l0 -5 0 -1 1 0 4 -2c1,0 1,0 2,0 0,1 0,1 0,2l-3 2 0 4z"/>
  <path class="fil0" d="M6 18c-1,0 -1,0 -2,0 0,-1 0,-1 0,-2l3 -2 0 -4c0,-1 1,-1 1,-1 1,0 1,1 1,1l0 5 0 1 -1 0 -4 2z"/>
  <path class="fil0" d="M2 16c-1,0 -1,0 -2,0 0,-1 0,-1 0,-2l3 -2 0 -4c0,-1 1,-1 1,-1 1,0 1,1 1,1l0 5 0 1 -1 0 -4 2z"/>
  <path class="fil0" d="M16 1c0,-1 1,-1 1,-1 1,0 1,1 1,1l0 37c0,1 -1,1 -1,1 -1,0 -1,-1 -1,-1l0 -37z"/>
  <path class="fil0" d="M22 35c1,0 1,1 0,2 0,1 -1,1 -2,0l-3 -2 -3 2c-1,0 -1,0 -2,0 0,-1 0,-1 0,-2l4 -2 1 0 1 0 4 2z"/>
  <path class="fil0" d="M14 32c-1,0 -1,0 -2,0 0,-1 0,-1 0,-2l4 -2 1 0 1 0 4 2c1,0 1,1 0,2 0,1 -1,1 -2,0l-3 -2 -3 2z"/>
  <path class="fil0" d="M13 9c-1,0 -1,-1 0,-2 0,-1 1,-1 2,0l3 2 3 -2c1,0 1,0 2,0 0,1 0,1 0,2l-4 2 -1 0 -1 0 -4 -2z"/>
  <path class="fil0" d="M13 5c-1,0 -1,-1 0,-2 0,-1 1,-1 2,0l3 2 3 -2c1,0 1,0 2,0 0,1 0,1 0,2l-4 2 -1 0 -1 0 -4 -2z"/>
  <path class="fil0" d="M32 9c1,0 1,0 2,0 0,1 0,1 0,2l-32 18c-1,0 -1,0 -2,0 0,-1 0,-1 0,-2l32 -18z"/>
  <path class="fil0" d="M7 31c0,1 -1,1 -1,1 -1,0 -1,-1 -1,-1l0 -4 -3 -2c-1,0 -1,-1 0,-2 0,-1 1,-1 2,0l4 2 1 0 0 1 0 5z"/>
  <path class="fil0" d="M5 23c-1,0 -1,-1 0,-2 0,-1 1,-1 2,0l4 2 1 0 0 1 0 5c0,1 -1,1 -1,1 -1,0 -1,-1 -1,-1l0 -4 -3 -2z"/>
  <path class="fil0" d="M24 10c0,-1 1,-1 1,-1 1,0 1,1 1,1l0 4 3 2c1,0 1,1 0,2 0,1 -1,1 -2,0l-4 -2 -1 0 0 -1 0 -5z"/>
  <path class="fil0" d="M28 8c0,-1 1,-1 1,-1 1,0 1,1 1,1l0 4 3 2c1,0 1,1 0,2 0,1 -1,1 -2,0l-4 -2 -1 0 0 -1 0 -5z"/>
 </g>
</svg>
