<svg width="256" height="256" viewBox="0 0 256 256" fill="none" xmlns="http://www.w3.org/2000/svg">

<style>
    #droplets{
        animation: rain 1.25s linear infinite normal;
    }

    @keyframes rain{
        from{
            transform: translate(0, -86px);
        }
        to{
            transform: translate(-46px, 86px);
        }
    }
</style>

<g id="droplets">
<path d="M199.598 38.1839C195.798 41.849 194.052 47.4133 195.515 52.8738C197.659 60.8758 205.884 65.6245 213.886 63.4804C221.888 61.3363 226.637 53.1112 224.493 45.1092L217.765 20L217.761 20.0119L199.598 38.1839Z" fill="#41DAEF"/>
<path d="M262.598 38.1839C258.798 41.849 257.052 47.4133 258.515 52.8738C260.659 60.8758 268.884 65.6245 276.886 63.4804C284.888 61.3363 289.637 53.1112 287.493 45.1092L280.765 20L280.761 20.0119L262.598 38.1839Z" fill="#41DAEF"/>
<path d="M325.598 38.1839C321.798 41.849 320.052 47.4133 321.515 52.8738C323.659 60.8758 331.884 65.6245 339.886 63.4804C347.888 61.3363 352.637 53.1112 350.493 45.1092L343.765 20L343.761 20.0119L325.598 38.1839Z" fill="#41DAEF"/>
<path d="M136.598 38.1839C132.798 41.849 131.052 47.4133 132.515 52.8738C134.659 60.8758 142.884 65.6245 150.886 63.4804C158.888 61.3363 163.637 53.1112 161.493 45.1092L154.765 20L154.761 20.0119L136.598 38.1839Z" fill="#41DAEF"/>
<path d="M73.598 38.1839C69.7983 41.849 68.0517 47.4133 69.5148 52.8738C71.659 60.8758 79.884 65.6245 87.886 63.4804C95.888 61.3363 100.637 53.1112 98.4926 45.1092L91.7646 20L91.7614 20.0119L73.598 38.1839Z" fill="#41DAEF"/>
<path d="M10.598 38.1839C6.79828 41.849 5.05171 47.4133 6.51484 52.8738C8.65897 60.8758 16.884 65.6245 24.886 63.4804C32.888 61.3363 37.6367 53.1112 35.4926 45.1092L28.7646 20L28.7614 20.0119L10.598 38.1839Z" fill="#41DAEF"/>
<path d="M190.598 -47.8161C186.798 -44.151 185.052 -38.5867 186.515 -33.1262C188.659 -25.1242 196.884 -20.3755 204.886 -22.5196C212.888 -24.6637 217.637 -32.8888 215.493 -40.8908L208.765 -66L208.761 -65.9881L190.598 -47.8161Z" fill="#41DAEF"/>
<path d="M253.598 -47.8161C249.798 -44.151 248.052 -38.5867 249.515 -33.1262C251.659 -25.1242 259.884 -20.3755 267.886 -22.5196C275.888 -24.6637 280.637 -32.8888 278.493 -40.8908L271.765 -66L271.761 -65.9881L253.598 -47.8161Z" fill="#41DAEF"/>
<path d="M316.598 -47.8161C312.798 -44.151 311.052 -38.5867 312.515 -33.1262C314.659 -25.1242 322.884 -20.3755 330.886 -22.5196C338.888 -24.6637 343.637 -32.8888 341.493 -40.8908L334.765 -66L334.761 -65.9881L316.598 -47.8161Z" fill="#41DAEF"/>
<path d="M127.598 -47.8161C123.798 -44.151 122.052 -38.5867 123.515 -33.1262C125.659 -25.1242 133.884 -20.3755 141.886 -22.5196C149.888 -24.6637 154.637 -32.8888 152.493 -40.8908L145.765 -66L145.761 -65.9881L127.598 -47.8161Z" fill="#41DAEF"/>
<path d="M64.598 -47.8161C60.7983 -44.151 59.0517 -38.5867 60.5148 -33.1262C62.659 -25.1242 70.884 -20.3755 78.886 -22.5196C86.888 -24.6637 91.6367 -32.8888 89.4926 -40.8908L82.7646 -66L82.7614 -65.9881L64.598 -47.8161Z" fill="#41DAEF"/>
<path d="M1.59804 -47.8161C-2.20172 -44.151 -3.94829 -38.5867 -2.48516 -33.1262C-0.341034 -25.1242 7.88402 -20.3755 15.886 -22.5196C23.888 -24.6637 28.6367 -32.8888 26.4926 -40.8908L19.7646 -66L19.7614 -65.9881L1.59804 -47.8161Z" fill="#41DAEF"/>
<path d="M144.598 124.184C140.798 127.849 139.052 133.413 140.515 138.874C142.659 146.876 150.884 151.625 158.886 149.48C166.888 147.336 171.637 139.111 169.493 131.109L162.765 106L162.761 106.012L144.598 124.184Z" fill="#41DAEF"/>
<path d="M207.598 124.184C203.798 127.849 202.052 133.413 203.515 138.874C205.659 146.876 213.884 151.625 221.886 149.48C229.888 147.336 234.637 139.111 232.493 131.109L225.765 106L225.761 106.012L207.598 124.184Z" fill="#41DAEF"/>
<path d="M270.598 124.184C266.798 127.849 265.052 133.413 266.515 138.874C268.659 146.876 276.884 151.625 284.886 149.48C292.888 147.336 297.637 139.111 295.493 131.109L288.765 106L288.761 106.012L270.598 124.184Z" fill="#41DAEF"/>
<path d="M81.598 124.184C77.7983 127.849 76.0517 133.413 77.5148 138.874C79.659 146.876 87.884 151.625 95.886 149.48C103.888 147.336 108.637 139.111 106.493 131.109L99.7646 106L99.7614 106.012L81.598 124.184Z" fill="#41DAEF"/>
<path d="M18.598 124.184C14.7983 127.849 13.0517 133.413 14.5148 138.874C16.659 146.876 24.884 151.625 32.886 149.48C40.888 147.336 45.6367 139.111 43.4926 131.109L36.7646 106L36.7614 106.012L18.598 124.184Z" fill="#41DAEF"/>
<path d="M-44.402 124.184C-48.2017 127.849 -49.9483 133.413 -48.4852 138.874C-46.341 146.876 -38.116 151.625 -30.114 149.48C-22.112 147.336 -17.3633 139.111 -19.5074 131.109L-26.2354 106L-26.2386 106.012L-44.402 124.184Z" fill="#41DAEF"/>
<path d="M153.598 210.184C149.798 213.849 148.052 219.413 149.515 224.874C151.659 232.876 159.884 237.625 167.886 235.48C175.888 233.336 180.637 225.111 178.493 217.109L171.765 192L171.761 192.012L153.598 210.184Z" fill="#41DAEF"/>
<path d="M216.598 210.184C212.798 213.849 211.052 219.413 212.515 224.874C214.659 232.876 222.884 237.625 230.886 235.48C238.888 233.336 243.637 225.111 241.493 217.109L234.765 192L234.761 192.012L216.598 210.184Z" fill="#41DAEF"/>
<path d="M279.598 210.184C275.798 213.849 274.052 219.413 275.515 224.874C277.659 232.876 285.884 237.625 293.886 235.48C301.888 233.336 306.637 225.111 304.493 217.109L297.765 192L297.761 192.012L279.598 210.184Z" fill="#41DAEF"/>
<path d="M90.598 210.184C86.7983 213.849 85.0517 219.413 86.5148 224.874C88.659 232.876 96.884 237.625 104.886 235.48C112.888 233.336 117.637 225.111 115.493 217.109L108.765 192L108.761 192.012L90.598 210.184Z" fill="#41DAEF"/>
<path d="M27.598 210.184C23.7983 213.849 22.0517 219.413 23.5148 224.874C25.659 232.876 33.884 237.625 41.886 235.48C49.888 233.336 54.6367 225.111 52.4926 217.109L45.7646 192L45.7614 192.012L27.598 210.184Z" fill="#41DAEF"/>
<path d="M-35.402 210.184C-39.2017 213.849 -40.9483 219.413 -39.4852 224.874C-37.341 232.876 -29.116 237.625 -21.114 235.48C-13.112 233.336 -8.36327 225.111 -10.5074 217.109L-17.2354 192L-17.2386 192.012L-35.402 210.184Z" fill="#41DAEF"/>
<path d="M98.598 296.184C94.7983 299.849 93.0517 305.413 94.5148 310.874C96.659 318.876 104.884 323.625 112.886 321.48C120.888 319.336 125.637 311.111 123.493 303.109L116.765 278L116.761 278.012L98.598 296.184Z" fill="#41DAEF"/>
<path d="M161.598 296.184C157.798 299.849 156.052 305.413 157.515 310.874C159.659 318.876 167.884 323.625 175.886 321.48C183.888 319.336 188.637 311.111 186.493 303.109L179.765 278L179.761 278.012L161.598 296.184Z" fill="#41DAEF"/>
<path d="M224.598 296.184C220.798 299.849 219.052 305.413 220.515 310.874C222.659 318.876 230.884 323.625 238.886 321.48C246.888 319.336 251.637 311.111 249.493 303.109L242.765 278L242.761 278.012L224.598 296.184Z" fill="#41DAEF"/>
<path d="M35.598 296.184C31.7983 299.849 30.0517 305.413 31.5148 310.874C33.659 318.876 41.884 323.625 49.886 321.48C57.888 319.336 62.6367 311.111 60.4926 303.109L53.7646 278L53.7614 278.012L35.598 296.184Z" fill="#41DAEF"/>
<path d="M-27.402 296.184C-31.2017 299.849 -32.9483 305.413 -31.4852 310.874C-29.341 318.876 -21.116 323.625 -13.114 321.48C-5.112 319.336 -0.363266 311.111 -2.50739 303.109L-9.23539 278L-9.23858 278.012L-27.402 296.184Z" fill="#41DAEF"/>
<path d="M-90.402 296.184C-94.2017 299.849 -95.9483 305.413 -94.4852 310.874C-92.341 318.876 -84.116 323.625 -76.114 321.48C-68.112 319.336 -63.3633 311.111 -65.5074 303.109L-72.2354 278L-72.2386 278.012L-90.402 296.184Z" fill="#41DAEF"/>
</g>
</svg>
